<svg id="Layer_1" data-name="Layer 1" xmlns="http://www.w3.org/2000/svg" viewBox="0 0 55.33 86.64"><defs><style>.cls-1{opacity:0.2;}.cls-2{fill:none;stroke:#fff;stroke-miterlimit:10;stroke-width:5px;}</style></defs><title>exnav-next</title><g id="nav-btn-new"><g id="shadow" class="cls-1"><path d="M52.75,42.05h0l-1.54-1.4a8,8,0,0,1-.46,2.29l.65.59h0a5.86,5.86,0,0,1,0,8.69l-34,30.88A5.87,5.87,0,0,1,7.6,78.8a7.62,7.62,0,0,1-1.42-.47A6.45,6.45,0,0,1,5.6,78v.74A7.77,7.77,0,0,0,10.28,86a8,8,0,0,0,3.22.69,7.8,7.8,0,0,0,5.25-2.06l34-30.88a7.87,7.87,0,0,0,0-11.65Z"/></g><path id="arrow" class="cls-2" d="M48,35.18,14,4.3A6.86,6.86,0,0,0,2.5,9.38V71.14A6.86,6.86,0,0,0,14,76.22L48,45.34A6.86,6.86,0,0,0,48,35.18Z"/></g></svg>