<svg id="Layer_1" data-name="Layer 1" xmlns="http://www.w3.org/2000/svg" viewBox="0 0 52.73 89.64"><defs><style>.cls-1{opacity:0.2;}.cls-2{fill:none;stroke:#fff;stroke-miterlimit:10;stroke-width:5px;}</style></defs><title>exnav-prev</title><g id="nav-btn-new"><g id="shadow" class="cls-1"><path d="M49.13,76.49v5.27a5.87,5.87,0,0,1-9.81,4.34l-34-30.88A5.86,5.86,0,0,1,5,46.89l-.89-.81a7.4,7.4,0,0,1-.56-.56A7.85,7.85,0,0,0,4,56.7L38,87.58a7.84,7.84,0,0,0,5.26,2.06A8,8,0,0,0,46.45,89a7.79,7.79,0,0,0,4.68-7.19V72.38A7.73,7.73,0,0,1,49.13,76.49Z"/></g><path id="arrow" class="cls-2" d="M4.75,35.18l34-30.88A6.86,6.86,0,0,1,50.23,9.38V71.14a6.86,6.86,0,0,1-11.48,5.08l-34-30.88A6.86,6.86,0,0,1,4.75,35.18Z"/></g></svg>