<svg xmlns="http://www.w3.org/2000/svg" viewBox="0 0 795.02 535.54"><defs><style>.cls-1{fill:#186d95;}.cls-2{fill:#fff;}</style></defs><title>title</title><g id="Layer_2" data-name="Layer 2"><g id="all_assets" data-name="all assets"><path id="depth" class="cls-1" d="M693.57,479.32c-.65.14-1.31.25-2,.35l-.37,0c-.6.08-1.21.14-1.83.19l-.47,0c-.72.05-1.45.07-2.2.07h-.51c-.62,0-1.25,0-1.9-.07l-.59,0c-.79,0-1.59-.12-2.41-.22l-.38-.05c-.71-.1-1.43-.2-2.17-.33l-.68-.12c-.86-.16-1.73-.33-2.62-.53s-1.55-.39-2.32-.6l-.71-.2c-.5-.14-1-.3-1.49-.46l88.76-26.33L728.88,444l28.86-34.76L705,397l48.09-14.26-24.51-41.12-121.9,36.15.91,1.52-7.08,2.09c-.21-.36-.43-.71-.66-1.06,0,0,0-.07-.05-.1a.91.91,0,0,1-.11-.16l-.48-.69-.19-.27c-.23-.31-.46-.61-.71-.91l-.09-.11c-.21-.26-.44-.52-.67-.77l-.25-.27c-.19-.21-.39-.41-.59-.61s-.11-.11-.16-.16l-.1-.09-.67-.61-.18-.16c-.29-.25-.59-.48-.89-.72l-.25-.18-.7-.49-.35-.23-.68-.41-.36-.21c-.26-.14-.52-.28-.79-.41l-.29-.15c-.37-.18-.74-.34-1.13-.5l-.24-.09-.95-.35-.42-.13-.85-.25-.25-.07-.5-.12c-.43-.1-.84-.18-1.25-.24l-.36-.06-.88-.1-.34,0c-.38,0-.75,0-1.11,0h-.07c-.34,0-.68,0-1,0h-.13l-.18,0c-.25,0-.49.06-.73.11l-.28.05c-.32.07-.64.14-.94.23l-36.81,10.92c2.21-19.17,11.88-33.22,26-37.42l-67.76,20.09,10.31-35.07-57,16.89-9.23-32.17-94.4,28c1.07-20.85,10.46-37.16,26.17-41.82l-70.31,20.86v-5.34l82.85-24.57,0,11.5,26.75,6.17,25.76-7.64c.17.51.34,1,.52,1.5l.16.42c.28.73.57,1.45.88,2.14v0l0,.06c.31.67.64,1.33,1,2l.19.35c.35.63.71,1.24,1.1,1.83l.09.16.21.31.57.82.37.5c.2.27.41.53.62.8l.36.45.75.85c.1.11.19.22.3.33.35.38.72.76,1.09,1.12l0,0,.09.09c.4.38.82.75,1.24,1.11l.39.32c.4.33.81.66,1.24,1l.22.17c.49.35,1,.69,1.52,1l.4.25c.42.25.85.5,1.29.74l.4.22q.81.44,1.68.84l.33.14c.49.22,1,.42,1.48.62l.5.19c.61.23,1.22.45,1.86.65h0c.64.21,1.29.39,1.95.56l.24.07.91.22c.69.16,1.36.29,2,.41l.54.1,1.55.24.39.05c.61.08,1.2.14,1.78.18l.41,0,1.35.06h.44c.54,0,1.07,0,1.57,0h.14c.34,0,.68-.05,1-.09l.24,0,1.15-.17.54-.09c.54-.11,1.06-.23,1.55-.38l121.89-36.15c-.49.14-1,.27-1.54.37-.17,0-.36.06-.54.09-.37.07-.76.13-1.16.18l-1.24.11h-.14c-.51,0-1,0-1.57,0h-.44c-.44,0-.89,0-1.35,0l-.41,0c-.58,0-1.17-.1-1.78-.17l-.39-.06c-.5-.06-1-.14-1.55-.23l-.54-.1c-.66-.12-1.33-.26-2-.42l-1.15-.29c-.66-.17-1.31-.35-1.95-.55h0c-.64-.2-1.26-.42-1.86-.65l-.5-.19-1.48-.62-.33-.15c-.58-.26-1.14-.54-1.68-.83l-.4-.22q-.66-.36-1.29-.75l-.41-.25c-.51-.33-1-.66-1.51-1l-.23-.17q-.63-.47-1.23-1l-.39-.32-.71-.65,78.27-23.21-30.81-7.12,24.82-29.89-56.9-13.13,57-16.92-25.25-42.38-58.62,17.39-.07-24-79.58,23.6a26.24,26.24,0,0,1,12.62-8.26l-40,11.86-.06-22.09,52.89-15.68L481,93.05,454.25,101l0-13.54-26.13,7.75L428,71.63,467.78,35,345.88,71.13,317.73,97.07c-.17-.17-.35-.34-.52-.52l-.14-.17c-.32-.35-.62-.72-.92-1.09l-.29-.37c-.29-.38-.57-.77-.84-1.18l-.13-.19c-.14-.22-.27-.45-.41-.68s-.41-.65-.6-1-.25-.5-.38-.75-.34-.66-.5-1-.29-.67-.43-1-.22-.52-.32-.78-.25-.72-.37-1.09-.18-.51-.26-.76-.11-.44-.17-.66c-.13-.45-.25-.9-.36-1.36-.06-.27-.1-.54-.15-.81-.08-.42-.16-.83-.22-1.26s-.11-.84-.15-1.27c0-.21-.05-.42-.07-.63-.05-.65-.08-1.3-.08-2,0-8.33,3.83-14.47,9.39-16.12L238.33,86.6l-4-.92-29.83,8.85,0-16.56L164,68.63l-22.59,6.7L121.9,42.55,157.22,0,35.32,36.15,0,78.7l35.62,59.78,30.82,7.11,16.2-4.8.27,91.41,29.88,6.9,28.86-8.57,1.86,5.24L83,253.72l.44,149.84,29.88,6.9,25.3-7.5,3.89,14.24,13.21,3.05,29.31-8.7.07,21.54-25.95,7.69.12,39.84,39.38,54.92,121.89-36.16L290.82,458,337,444.27l10.53-9.7,9.2,32.09,28.5,6.58,42.28-12.54c0,.05,0,.12.08.17.12.28.26.55.39.82s.35.74.53,1.11.45.9.69,1.34.36.72.55,1.07.5.88.75,1.32.38.68.58,1,.53.87.8,1.31.39.63.6.94l.12.21.33.47c.46.7.94,1.38,1.43,2.06l.59.81c.5.67,1,1.32,1.52,1.95.16.2.31.4.47.59.67.81,1.36,1.6,2.06,2.37l.49.51c.56.59,1.13,1.18,1.71,1.75l.33.34.71.66.39.37c.55.51,1.12,1,1.69,1.49l.35.29c.49.41,1,.8,1.47,1.18l.45.36c.6.45,1.2.9,1.81,1.32l.24.17c.54.38,1.09.74,1.64,1.1l.51.32c.62.38,1.24.76,1.87,1.12l0,0c.65.37,1.3.71,2,1.05l.52.27c.57.29,1.15.56,1.73.83l.3.14c.67.3,1.35.58,2,.85l.52.2c.57.22,1.13.43,1.71.62l.44.16c.69.23,1.39.45,2.09.65l.47.13.95.26,1.14.27c.63.15,1.26.28,1.9.4l.54.11,1.5.25.47.08,1.9.25.39,0,1.56.14.55,0,1.7.08h.23c.63,0,1.26,0,1.89,0h.51c.49,0,1,0,1.45-.06l.5,0c.62,0,1.24-.09,1.85-.15h.06l.3,0,1.3-.17c.19,0,.38-.06.56-.09.37-.05.74-.12,1.1-.18l.58-.12c.38-.07.74-.15,1.11-.24l.51-.11c.52-.13,1-.27,1.56-.43l24.72-7.33-1,1.94c.52.71,1.07,1.42,1.64,2.12.18.23.38.45.57.68.39.46.78.93,1.19,1.39l.72.78c.38.42.78.84,1.18,1.25l.78.79.56.56.78.73.58.54c.66.61,1.34,1.21,2,1.79l.14.12c.65.55,1.31,1.08,2,1.61l.66.51q.79.61,1.62,1.2l.67.49q1.11.78,2.25,1.53l0,0c.77.51,1.56,1,2.35,1.47l.7.41c.59.35,1.17.68,1.76,1l.74.4c.75.4,1.5.79,2.25,1.16l.2.11c.82.4,1.65.78,2.48,1.15l.72.31c.62.26,1.23.52,1.85.76l.78.31c.73.28,1.46.54,2.19.79l.35.12c.84.28,1.68.54,2.52.79l.71.19,1.09.3q.61.16,1.23.3c.89.2,1.76.38,2.62.53l.69.13c.73.12,1.45.23,2.16.32l.38.05c.82.1,1.62.17,2.41.23l.59,0c.65,0,1.28.06,1.9.06h.51c.75,0,1.48,0,2.2-.07l.47,0c.33,0,.67,0,1-.08l.83-.1.37,0c.67-.09,1.33-.21,2-.34l.4-.09c.66-.15,1.31-.31,1.94-.49l121.9-36.16c-.63.19-1.28.35-1.94.49ZM204.65,142.46l59.73-17.72a10.3,10.3,0,0,0,6-4.86l35.69-10.59,0,5L204.65,144.43ZM205,260.38l8.76,2L205,265Z"/><g id="moves"><path class="cls-2" d="M759.4,348.74,795,408.52,759.7,451.06,728.88,444l28.86-34.76L675,390.09c-6.17-1.36-10.43.33-10.42,5,0,4.95,4.55,7.78,13.41,11.85,14.26,6.44,35.47,15.82,35.55,44.58.06,20.67-14,32.69-38.12,27.12-14.94-3.46-30.42-13.54-39.31-25.7l11.05-21.24c6.27,8.63,19.67,18.91,29.58,21.2,8,1.84,11.28-.77,11.26-5.49,0-5.61-5.75-9-14.44-12.76-14.26-6.43-34.43-14.9-34.51-42.54-.05-18.95,12.4-32.58,35.36-27.51l.5.1,78.14,18-24.51-41.12Z"/><path class="cls-2" d="M630,414.71l0,7.42-59.77-13.8c1.6,10.47,8.92,21.36,21.43,24.25,7.47,1.72,15.8-.17,20.48-4.48l11.35,24.18c-8.31,7.73-22.19,9.24-35.05,6.27-25.89-6-45.93-32.38-46-67.65-.09-31.45,18.25-52.59,44.49-46.53C611.71,350.11,629.85,377.86,630,414.71ZM569.8,385.78l34.58,8c-.72-7.79-5.1-19.8-17.43-22.65-11.64-2.69-16.13,7-17.15,14.67"/><polygon class="cls-2" points="539.79 336.2 507.1 437.08 478.6 430.5 445.28 314.38 473.43 320.88 492.56 393.99 511.47 329.66 539.79 336.2"/><path class="cls-2" d="M396.3,300.37c28.84,6.66,45.95,36.88,46,67.43s-16.86,53.13-45.71,46.47c-28.49-6.58-45.77-37-45.86-67.61S367.8,293.8,396.3,300.37Zm.25,83.35c11.81,2.73,18.37-7.65,18.33-22.26,0-14.37-6.68-27.8-18.49-30.53-11.64-2.69-18,7.74-18,22.11,0,14.61,6.5,28,18.15,30.68"/><polygon class="cls-2" points="336.4 247.93 336.97 444.27 360.16 422.9 360.28 462.73 320.51 499.38 281.14 444.46 281.02 404.63 307.09 440.99 306.65 289.78 277.59 384.09 264.38 381.05 234.89 273.21 235.19 374.31 205.31 367.41 204.87 217.57 246.39 227.16 270.8 317.65 294.87 238.35 336.4 247.93"/></g><g id="right"><path class="cls-2" d="M650.89,154.05l35.62,59.78-35.32,42.55-30.81-7.12,24.82-29.89L588.15,206.2l.12,39.54c0,6.29,2.81,11.65,7.5,12.73,3,.68,5.91,0,6.77-1.13l5.29,27.26c-3.29,3.28-9.89,4.9-19.79,2.61-17-3.93-26.27-17.06-26.33-37.95l-.14-49.2-13.9-3.2-.09-30.11,13.9,3.21-.09-29.65L588,146.45l.08,29.65,57.27,13.22-25.25-42.38Z"/><path class="cls-2" d="M467.78,35,507.15,89.9l.12,39.84L481,93.05l.21,71.62c5-6.48,14.89-12.5,29-9.25,19.11,4.41,27.84,20.34,27.9,40.33l.23,77.28-26.75-6.18-.19-63.12c0-13.25-5.44-18.77-13.95-20.73-7.82-1.81-13,2.6-16.13,6.83l.2,70.08-26.75-6.18-.49-166.3-26.08,24L428,71.63Z"/><ellipse class="cls-2" cx="325.71" cy="82.08" rx="14.74" ry="20.48" transform="translate(-9.89 96.01) rotate(-16.52)"/><path class="cls-2" d="M413,135.67l26.59,6.14.29,98.84c.13,44.25-26.95,47.43-47.8,42.62-14.42-3.33-26.42-10.82-37.23-24.76l11.57-22A40.14,40.14,0,0,0,392,255c8.86,2,21.35.22,21.3-20l0-8.32c-6.91,9-15.24,12.2-24.8,10-20.5-4.74-37.06-26.75-37.17-63.37-.1-35.71,15.83-50.89,36.85-46,9.38,2.17,18.09,8.89,24.89,21.23Zm.2,66.5-.09-29c-3.31-6.61-10.45-12.07-16-13.36-10.6-2.44-18.39,4.07-18.34,19.79,0,15.95,7.88,26.07,18.48,28.52,5.56,1.28,12.68-.89,16-6"/><polygon class="cls-2" points="339.19 118.64 339.51 227.14 312.75 220.96 312.43 112.47 339.19 118.64"/><path class="cls-2" d="M279.88,158.38l23.79,60.49L269.44,211,249.83,155.7l-15.29-3.53.15,50.77L204.8,196,204.46,78,164,68.63l24.32,40.81-30.82-7.12L121.9,42.55,157.22,0,188,7.11,163.52,36.65l78.34,18.08L262.4,59.6c25.71,5.94,40.37,31.33,40.45,59.19C302.93,144.85,290.64,155.92,279.88,158.38Zm-21.8-33.55c7.81,1.81,14.4-3.18,14.37-13.52S265.8,92.94,258,91.13l-23.64-5.45.1,33.7,23.64,5.45"/></g></g></g></svg>