<svg id="Layer_1" data-name="Layer 1" xmlns="http://www.w3.org/2000/svg" viewBox="0 0 48.08 149.49"><defs><style>.cls-1{opacity:0.15;}.cls-2{fill:#1e393d;}.cls-3{fill:#00acc3;}.cls-4{opacity:0.2;}.cls-5{fill:#fff;}</style></defs><title>hanger-long</title><circle class="cls-1" cx="24.04" cy="125.45" r="24.04"/><circle class="cls-2" cx="24.04" cy="125.45" r="17.54"/><circle class="cls-3" cx="24.34" cy="127.62" r="15.37"/><path class="cls-4" d="M18,0H32a0,0,0,0,1,0,0V114.12a3,3,0,0,1-3,3H21a3,3,0,0,1-3-3V0A0,0,0,0,1,18,0Z"/><path class="cls-5" d="M18,0H30a0,0,0,0,1,0,0V112.38a3,3,0,0,1-3,3H21a3,3,0,0,1-3-3V0A0,0,0,0,1,18,0Z"/></svg>