<svg xmlns="http://www.w3.org/2000/svg" viewBox="0 0 121.96 61.22"><defs><style>.cls-1{isolation:isolate;}.cls-2{fill:#9d9d9d;}.cls-3{fill:#fff;}.cls-4{mix-blend-mode:multiply;}.cls-5{fill:#fdbf11;}.cls-6{fill:#1e393d;}.cls-7{fill:#9b770a;}</style></defs><title>score-sprite-education</title><g class="cls-1"><g id="Layer_1" data-name="Layer 1"><polygon class="cls-2" points="30.27 0 0 19.27 0.05 59.63 30.27 61.22 30.27 0"/><polygon class="cls-3" points="30.27 0 59.94 19.59 59.94 59.63 30.27 61.22 30.27 0"/><g class="cls-4"><polygon class="cls-5" points="30.27 0 0 19.27 0.05 59.63 30.27 61.22 30.27 0"/><polygon class="cls-5" points="30.27 0 59.94 19.59 59.94 59.63 30.27 61.22 30.27 0"/></g><polygon class="cls-6" points="64.07 57.79 63.94 20.43 92.15 2.38 119.88 20.6 119.96 57.67 92.29 59.21 64.07 57.79"/><path class="cls-7" d="M92.13,4.77l25.75,16.91.08,34.1L92.28,57.21,66.06,55.89,66,21.52,92.13,4.77m0-4.77L61.94,19.33l.14,40.36L92.3,61.22,122,59.56l-.08-40L92.16,0Z"/></g></g></svg>