<svg xmlns="http://www.w3.org/2000/svg" viewBox="0 0 121.94 61.22"><defs><style>.cls-1{isolation:isolate;}.cls-2{fill:#9d9d9d;}.cls-3{fill:#fff;}.cls-4{mix-blend-mode:multiply;}.cls-5{fill:#bcc847;}.cls-6{fill:#1e393d;}.cls-7{fill:#747b2c;}</style></defs><title>score-sprite-financial</title><g class="cls-1"><g id="Layer_1" data-name="Layer 1"><polygon class="cls-2" points="30.34 0 0.08 19.27 0.13 59.63 30.34 61.22 30.34 0"/><polygon class="cls-3" points="30.34 0 60.02 19.59 60.02 59.63 30.34 61.22 30.34 0"/><g class="cls-4"><polygon class="cls-5" points="30.34 0 0.08 19.27 0.13 59.63 30.34 61.22 30.34 0"/><polygon class="cls-5" points="30.34 0 60.02 19.59 60.02 59.63 30.34 61.22 30.34 0"/></g><polygon class="cls-6" points="64.15 57.79 64.02 20.43 92.23 2.38 119.96 20.6 120.04 57.67 92.37 59.21 64.15 57.79"/><path class="cls-7" d="M92.21,4.77,118,21.68l.07,34.1L92.36,57.21,66.14,55.89,66,21.52,92.21,4.77m0-4.77L62,19.33l.13,40.36,30.22,1.53L122,59.56l-.09-40L92.24,0Z"/></g></g></svg>