<svg xmlns="http://www.w3.org/2000/svg" viewBox="0 0 36 29.25"><defs><style>.a{fill:#fff;}</style></defs><title>share-twitter</title><path class="a" d="M32.34,12.9a20.85,20.85,0,0,1-2.46,9.77,20.08,20.08,0,0,1-7.1,7.95,20.29,20.29,0,0,1-11.46,3.3A20.48,20.48,0,0,1,0,30.62q.77.07,1.76.07A14.64,14.64,0,0,0,11,27.53a6.87,6.87,0,0,1-4.32-1.44,7.34,7.34,0,0,1-2.57-3.62q.7.07,1.34.07a9.37,9.37,0,0,0,2-.21,7.44,7.44,0,0,1-4.22-2.6,7.08,7.08,0,0,1-1.69-4.64v-.14a7,7,0,0,0,3.3,1,8.19,8.19,0,0,1-2.39-2.67A7.16,7.16,0,0,1,2.53,6,20.36,20.36,0,0,0,9.25,11.5a20.44,20.44,0,0,0,8.47,2.25,10.25,10.25,0,0,1-.14-1.69,7.32,7.32,0,0,1,1-3.69,7.23,7.23,0,0,1,2.67-2.71,7.13,7.13,0,0,1,3.66-1,7,7,0,0,1,3,.63A8.35,8.35,0,0,1,30.3,7,15,15,0,0,0,35,5.24a7.33,7.33,0,0,1-3.23,4.08A15.86,15.86,0,0,0,36,8.12,16.23,16.23,0,0,1,32.27,12,4.19,4.19,0,0,1,32.34,12.9Z" transform="translate(0 -4.68)"/></svg>