<svg xmlns="http://www.w3.org/2000/svg" viewBox="0 0 36 27"><defs><style>.a{fill:#fff;}</style></defs><title>share-email</title><path class="a" d="M18,23.8A4.49,4.49,0,0,1,15.75,23a16.76,16.76,0,0,1-2.18-1.55l-.7-.49Q4.22,14.59,1.13,12.2l-.49-.35A1.6,1.6,0,0,1,0,10.51V9.18A3.25,3.25,0,0,1,1,6.79a3.25,3.25,0,0,1,2.39-1H32.63A3.36,3.36,0,0,1,36,9.18v1.34a1.6,1.6,0,0,1-.63,1.34l-.35.28q-3,2.39-11.88,8.79l-.7.49A16.76,16.76,0,0,1,20.25,23,4.49,4.49,0,0,1,18,23.8Zm17.3-9.07q-2.53,2-10.83,7.95l-.7.56a19.63,19.63,0,0,1-2.67,1.83,6.24,6.24,0,0,1-3.09,1,6.59,6.59,0,0,1-3.09-.91,28,28,0,0,1-2.67-1.83l-.7-.63Q3,16.49.7,14.73a.45.45,0,0,0-.46,0,.39.39,0,0,0-.25.39V29.43a3.25,3.25,0,0,0,1,2.39,3.25,3.25,0,0,0,2.39,1H32.63A3.36,3.36,0,0,0,36,29.43V15.08a.46.46,0,0,0-.25-.42A.35.35,0,0,0,35.3,14.73Z" transform="translate(0 -5.8)"/></svg>