<?xml version="1.0" encoding="utf-8"?>
<!-- Generator: Adobe Illustrator 22.1.0, SVG Export Plug-In . SVG Version: 6.00 Build 0)  -->
<svg version="1.1" id="Layer_1" xmlns="http://www.w3.org/2000/svg" xmlns:xlink="http://www.w3.org/1999/xlink" x="0px" y="0px"
	 viewBox="0 0 112.7 115.6" style="enable-background:new 0 0 112.7 115.6;" xml:space="preserve">
<style type="text/css">
	.st0{opacity:0.75;}
	.st1{clip-path:url(#SVGID_2_);fill:#005E8A;}
	.st2{enable-background:new    ;}
	.st3{clip-path:url(#SVGID_4_);}
	.st4{fill:#FFFFFF;}
</style>
<g>
	<g class="st0">
		<g>
			<defs>
				<polygon id="SVGID_1_" points="4.1,120.5 0.8,17.8 111.3,-11.8 114.6,90.9 				"/>
			</defs>
			<clipPath id="SVGID_2_">
				<use xlink:href="#SVGID_1_"  style="overflow:visible;"/>
			</clipPath>
			<polyline class="st1" points="12.4,14.7 9.5,15.5 9.7,20.9 5.1,22.1 4.9,16.7 2,17.5 2.5,32 5.3,31.2 5.2,25.4 9.8,24.2 10,30 
				12.8,29.2 12.4,14.7 			"/>
			<path class="st1" d="M18.6,25c-1.1,0.3-1.8-0.7-1.8-2.1c0-1.4,0.5-2.7,1.6-3c1.1-0.3,1.8,0.7,1.9,2.1
				C20.3,23.3,19.7,24.7,18.6,25 M18.3,16.9c-2.7,0.7-4.3,3.7-4.2,6.7c0.1,3,1.8,5.1,4.6,4.4c2.8-0.7,4.3-3.8,4.2-6.7
				C22.8,18.2,21.1,16.1,18.3,16.9"/>
			<polyline class="st1" points="36.4,12.3 33.7,13 32.6,19.8 30.9,13.8 28.6,14.4 27.2,21.3 25.7,15.2 23,15.9 25.8,25.8 28.5,25 
				29.8,18.1 31.6,24.2 34.3,23.5 36.4,12.3 			"/>
			<path class="st1" d="M45.6,17.7c-1,0.3-1.8-0.5-1.9-2.1c-0.1-1.6,0.7-2.8,1.7-3c0.6-0.1,1.2,0,1.6,0.5l0.1,3.2
				C46.8,17,46.2,17.6,45.6,17.7 M49.4,4.8l-2.6,0.7l0.2,5.3c-0.7-0.9-1.6-1.1-2.4-0.9c-2,0.5-3.5,3-3.4,6.5
				c0.1,3.6,1.8,5.1,3.8,4.6c0.9-0.2,1.7-0.9,2.3-2.1l0,1.2l2.6-0.7L49.4,4.8"/>
			<path class="st1" d="M55.5,15.1c-1.1,0.3-1.8-0.7-1.8-2.1c0-1.4,0.5-2.7,1.6-3c1.1-0.3,1.8,0.7,1.9,2.1
				C57.2,13.4,56.6,14.8,55.5,15.1 M55.2,7c-2.7,0.7-4.3,3.7-4.2,6.7c0.1,3,1.8,5.1,4.6,4.4c2.8-0.7,4.3-3.8,4.2-6.7
				C59.7,8.4,58,6.2,55.2,7"/>
			<path class="st1" d="M63.2,9.3c0.1-0.8,0.5-2,1.6-2.3c1.2-0.3,1.6,0.6,1.7,1.4L63.2,9.3 M64.8,4.4c-2.5,0.7-4.2,3.6-4.1,6.7
				c0.1,3.4,2.1,5,4.6,4.3c1.2-0.3,2.6-1.2,3.3-2.3l-1.2-1.8c-0.4,0.6-1.2,1.2-1.9,1.4c-1.2,0.3-1.9-0.4-2.1-1.3l5.8-1.5l0-0.7
				C69,5.6,67.1,3.8,64.8,4.4"/>
			<path class="st1" d="M73.2,2.2c-2.2,0.6-3.4,2.5-3.3,4.4c0.1,2.7,2,2.5,3.4,2.5c0.8,0,1.4,0,1.4,0.5c0,0.5-0.3,0.9-1.1,1.1
				c-1,0.3-2.3-0.1-2.9-0.6l-1,2.6c0.9,0.8,2.4,1,3.8,0.6c2.3-0.6,3.6-2.5,3.6-4.5c-0.1-2.8-2.1-2.7-3.5-2.6c-0.9,0-1.3,0-1.3-0.5
				c0-0.5,0.4-0.8,1-1c1-0.3,1.9,0,2.4,0.5l0.9-2.5C75.8,2.1,74.6,1.8,73.2,2.2"/>
			<path class="st1" d="M5.4,44.8l-2.6,0.7L3.3,60l2.6-0.7l-0.2-6.8c0.3-0.6,0.8-1.2,1.5-1.4c0.8-0.2,1.3,0.1,1.4,1.3l0.2,6.1
				l2.6-0.7l-0.2-7.5c-0.1-1.9-0.9-3.1-2.8-2.6c-1.4,0.4-2.3,1.4-2.7,2.3L5.4,44.8"/>
			<path class="st1" d="M17,53.6c-1.1,0.3-1.8-0.7-1.8-2.1c0-1.4,0.5-2.7,1.7-3c1.1-0.3,1.8,0.7,1.9,2.1C18.7,52,18.1,53.3,17,53.6
				 M16.7,45.5c-2.7,0.7-4.3,3.7-4.2,6.7c0.1,3,1.8,5.1,4.6,4.4c2.8-0.7,4.3-3.8,4.2-6.7S19.5,44.8,16.7,45.5"/>
			<path class="st1" d="M30.5,42.1L28,42.8l0.2,6.8c-0.3,0.6-0.8,1.2-1.5,1.4c-0.8,0.2-1.4-0.1-1.4-1.3l-0.2-6.1l-2.6,0.7l0.2,7.5
				c0.1,1.9,0.9,3.1,2.8,2.6c1.4-0.4,2.3-1.4,2.7-2.3l0,1.3l2.6-0.7L30.5,42.1"/>
			<path class="st1" d="M35.5,40.5c-2.2,0.6-3.4,2.5-3.4,4.4c0.1,2.7,2,2.5,3.4,2.5c0.8,0,1.4,0,1.4,0.5c0,0.5-0.3,0.9-1.1,1.1
				c-1,0.3-2.3-0.1-2.9-0.6l-1,2.6c0.9,0.7,2.4,1,3.8,0.6c2.3-0.6,3.6-2.5,3.6-4.5c-0.1-2.8-2.1-2.7-3.5-2.6c-0.9,0-1.3,0-1.3-0.5
				c0-0.5,0.4-0.8,1-1c1-0.3,1.9,0,2.4,0.5l0.9-2.5C38,40.4,36.8,40.1,35.5,40.5"/>
			<path class="st1" d="M43.1,38.7l-2.6,0.7l0.3,10.5l2.6-0.7L43.1,38.7 M41.6,33.9c-0.8,0.2-1.4,1.2-1.4,2.3c0,1.1,0.7,1.7,1.5,1.5
				c0.8-0.2,1.4-1.2,1.4-2.3C43.1,34.4,42.4,33.7,41.6,33.9"/>
			<path class="st1" d="M50.3,36.5c-1.4,0.4-2.3,1.4-2.7,2.3l0-1.3l-2.6,0.7l0.3,10.5l2.6-0.7l-0.2-6.8c0.3-0.6,0.8-1.2,1.5-1.4
				c0.8-0.2,1.3,0.1,1.4,1.4l0.2,6.1l2.6-0.7l-0.2-7.4C53,37.2,52.1,36,50.3,36.5"/>
			<path class="st1" d="M59,41.9c-1,0.3-1.8-0.3-1.8-1.9c0-1.5,0.7-2.5,1.7-2.8c0.5-0.1,1.2,0,1.6,0.5l0.1,2.8
				C60.2,41.2,59.5,41.8,59,41.9 M57.9,34.5c-2,0.5-3.5,2.8-3.4,6.2c0.1,3.6,1.8,4.9,3.7,4.4c0.9-0.2,1.7-1,2.3-2.2l0,0.8
				c0.1,2-1.1,2.7-2,3c-0.9,0.3-1.8,0.1-2.5-0.6l-1,2.7c1.1,0.8,2.2,1,3.6,0.6c2-0.5,4.6-2.1,4.4-6.4l-0.3-9.6l-2.6,0.7l0,1.2
				C59.6,34.5,58.8,34.3,57.9,34.5"/>
			<path class="st1" d="M72.6,39.5c-0.7,0.2-1.3,0-1.3-0.9c0-0.8,0.6-1.4,1.2-1.6c0.6-0.2,1.2-0.1,1.5,0.4l0,0.9
				C73.7,38.9,73.2,39.3,72.6,39.5 M72.6,30.6c-1.2,0.3-2.6,1.2-3.6,2.6l1,1.9c0.6-0.9,1.4-1.5,2.3-1.7c1-0.3,1.7,0.2,1.7,1.1l0,1.3
				c-0.5-0.7-1.5-0.8-2.5-0.5c-1.2,0.3-2.7,1.5-2.7,4c0.1,2.4,1.6,3.1,2.9,2.7c1-0.3,2-1.1,2.5-2l0,1l2.6-0.7l-0.2-6.6
				C76.3,30.5,74.5,30,72.6,30.6"/>
			<path class="st1" d="M81.5,24.2c-1.7,0.4-2.8,2.2-2.8,4.5l0,0.5l-1.3,0.4l0.1,2.9l1.3-0.4l0.2,7.6l2.6-0.7l-0.2-7.6l1.6-0.4
				L83,28l-1.6,0.4l0-0.4c0-0.8,0.3-1.3,0.8-1.5c0.2-0.1,0.5-0.1,0.7,0l0.4-2.4C82.8,24,82.2,24,81.5,24.2 M87.3,22.6
				c-1.7,0.4-2.8,2.2-2.8,4.5l0,0.5L83.2,28l0.1,2.9l1.3-0.4l0.2,7.6l2.6-0.7l-0.2-7.6l1.6-0.4l-0.1-2.9l-1.6,0.4l0-0.4
				c0-0.8,0.3-1.3,0.8-1.5c0.2-0.1,0.5-0.1,0.7,0l0.4-2.4C88.6,22.4,88,22.4,87.3,22.6"/>
			<path class="st1" d="M92.1,29.8c0.1-0.8,0.5-1.9,1.6-2.2c1.2-0.3,1.6,0.6,1.7,1.4L92.1,29.8 M93.6,24.9c-2.5,0.7-4.2,3.6-4.1,6.7
				c0.1,3.4,2.1,5,4.6,4.3c1.2-0.3,2.6-1.1,3.3-2.3l-1.2-1.8c-0.4,0.6-1.2,1.2-1.9,1.4c-1.2,0.3-1.9-0.4-2.1-1.3l5.7-1.5l0-0.7
				C97.8,26.1,96,24.3,93.6,24.9"/>
			<path class="st1" d="M102.9,22.4c-2.5,0.7-4.3,3.4-4.2,6.7c0.1,3.3,2.1,5,4.6,4.3c1.7-0.5,2.8-1.8,3.2-2.8l-1.7-1.6
				c-0.3,0.7-0.8,1.2-1.5,1.4c-1.1,0.3-1.9-0.5-2-2.1c-0.1-1.6,0.7-2.8,1.8-3.1c0.7-0.2,1.2,0.1,1.6,0.6l1.6-2.5
				C105.7,22.7,104.6,22,102.9,22.4"/>
			<path class="st1" d="M110.4,17.8l-2.6,0.7l0.1,2.9l-1.3,0.4l0.1,2.9l1.3-0.4l0.2,4.8c0.1,2,1,2.9,2.6,2.4c1-0.3,1.6-0.7,1.9-1.2
				l-0.6-2.4c-0.1,0.2-0.4,0.4-0.6,0.4c-0.5,0.1-0.7-0.3-0.8-0.9l-0.1-3.8l1.6-0.4l-0.1-2.9l-1.6,0.4L110.4,17.8"/>
			<path class="st1" d="M11.8,75.3L9.1,76l-1.6,7.2l-2-6.2l-2.7,0.7l3.5,9.8l-0.2,0.6C6,88.6,5.7,88.9,5.1,89
				c-0.2,0.1-0.5,0.1-0.6,0l-0.3,3.1C4.4,92.1,5,92,5.3,92c1.5-0.5,2.7-1.3,3.3-3.7L11.8,75.3"/>
			<path class="st1" d="M16.7,81.9c-1.1,0.3-1.8-0.7-1.8-2.1c0-1.4,0.5-2.7,1.7-3c1.1-0.3,1.8,0.7,1.9,2.1
				C18.5,80.3,17.9,81.6,16.7,81.9 M16.5,73.8c-2.7,0.7-4.3,3.7-4.2,6.7c0.1,3,1.8,5.1,4.6,4.4c2.8-0.7,4.3-3.8,4.2-6.7
				C21,75.2,19.2,73.1,16.5,73.8"/>
			<path class="st1" d="M30.3,70.4l-2.6,0.7l0.2,6.8c-0.3,0.6-0.8,1.2-1.5,1.4C25.6,79.5,25,79.2,25,78l-0.2-6.1l-2.6,0.7l0.2,7.5
				c0.1,1.9,0.9,3.1,2.8,2.6c1.4-0.4,2.3-1.4,2.7-2.3l0,1.3l2.6-0.7L30.3,70.4"/>
			<path class="st1" d="M37.2,68.2c-1,0.3-2,1.3-2.5,2.3l0-1.3l-2.6,0.7l0.3,10.5l2.6-0.7L34.8,73c0.3-0.7,1.2-1.3,1.9-1.5
				c0.3-0.1,0.5-0.1,0.6-0.1L37.2,68.2"/>
			<path class="st1" d="M46,61.9c-1.7,0.4-2.8,2.2-2.8,4.5l0,0.5l-1.3,0.4l0.1,2.9l1.3-0.4l0.2,7.6l2.6-0.7l-0.2-7.6l1.6-0.4
				l-0.1-2.9l-1.6,0.4l0-0.4c0-0.8,0.3-1.3,0.8-1.5c0.2-0.1,0.5-0.1,0.7,0l0.4-2.4C47.3,61.7,46.7,61.7,46,61.9"/>
			<path class="st1" d="M52.1,73.2c-0.7,0.2-1.3,0-1.3-0.9c0-0.8,0.6-1.4,1.2-1.6c0.6-0.2,1.2-0.1,1.5,0.4l0,0.9
				C53.3,72.6,52.7,73,52.1,73.2 M52.1,64.3c-1.2,0.3-2.6,1.2-3.6,2.6l1,1.9c0.6-0.9,1.4-1.5,2.3-1.7c1-0.3,1.7,0.2,1.7,1.1l0,1.3
				c-0.5-0.7-1.5-0.8-2.5-0.6c-1.2,0.3-2.7,1.5-2.7,4.1c0.1,2.4,1.6,3,2.9,2.7c1-0.3,2-1.1,2.5-2l0,1l2.6-0.7L56,67.5
				C55.9,64.2,54,63.7,52.1,64.3"/>
			<path class="st1" d="M68,60c-1.3,0.3-2.3,1.6-2.7,2.6c-0.4-1.2-1.2-1.6-2.4-1.3c-1.3,0.3-2.3,1.6-2.6,2.3l0-1.3L57.7,63L58,73.5
				l2.6-0.7L60.4,66c0.3-0.5,0.7-1.2,1.4-1.4c0.8-0.2,1.1,0.3,1.1,1.1l0.2,6.4l2.6-0.7l-0.2-6.8c0.2-0.5,0.7-1.2,1.4-1.4
				c0.8-0.2,1.1,0.3,1.1,1.1l0.2,6.4l2.6-0.7l-0.2-7.6C70.5,60.3,69.5,59.6,68,60"/>
			<path class="st1" d="M74.9,58.4l-2.6,0.7l0.3,10.5l2.6-0.7L74.9,58.4 M73.5,53.6c-0.8,0.2-1.4,1.2-1.4,2.3c0,1.1,0.7,1.7,1.5,1.5
				c0.8-0.2,1.4-1.2,1.4-2.3C75,54,74.3,53.4,73.5,53.6"/>
			<polyline class="st1" points="79.2,53.2 76.7,53.9 77.1,68.4 79.7,67.7 79.2,53.2 			"/>
			<path class="st1" d="M89.2,54.6l-2.7,0.7l-1.6,7.2l-2-6.2L80.1,57l3.6,9.8l-0.2,0.6c-0.1,0.5-0.5,0.7-1.1,0.9
				c-0.2,0.1-0.5,0.1-0.6,0l-0.3,3.1c0.3,0,0.9-0.1,1.1-0.1c1.5-0.5,2.7-1.3,3.3-3.7L89.2,54.6"/>
			<path class="st1" d="M91.1,49.8c-0.8,0.2-1.5,1.3-1.5,2.4c0,1.1,0.6,1.7,1.4,1.5c0.1,0,0.3-0.1,0.4-0.2c-0.2,0.9-0.8,2-1.4,2.5
				l1.1,0.8c1.1-1.4,1.8-3.2,1.8-4.9C92.9,50.3,92,49.6,91.1,49.8"/>
			<path class="st1" d="M97,52.2c-2.2,0.6-3.4,2.5-3.3,4.4c0.1,2.7,2,2.5,3.4,2.5c0.8,0,1.4,0,1.4,0.5c0,0.5-0.3,0.9-1.1,1.1
				c-1,0.3-2.3-0.1-2.9-0.6l-1,2.6c0.9,0.8,2.4,1,3.8,0.6c2.3-0.6,3.6-2.5,3.6-4.5c-0.1-2.8-2.1-2.7-3.5-2.6c-0.9,0-1.3,0-1.3-0.5
				c0-0.5,0.4-0.8,1-1c1-0.3,1.9,0,2.4,0.5l0.9-2.5C99.6,52.1,98.4,51.9,97,52.2"/>
			<polyline class="st1" points="17.1,102.1 14.4,102.8 13.3,109.6 11.5,103.6 9.2,104.2 7.9,111.1 6.4,105 3.7,105.7 6.4,115.6 
				9.2,114.8 10.5,107.9 12.2,114 15,113.3 17.1,102.1 			"/>
			<path class="st1" d="M20.1,105.5c0.1-0.8,0.5-2,1.6-2.2c1.2-0.3,1.6,0.6,1.7,1.4L20.1,105.5 M21.7,100.6
				c-2.5,0.7-4.2,3.6-4.1,6.7c0.1,3.4,2.1,5,4.6,4.4c1.2-0.3,2.6-1.2,3.3-2.3l-1.2-1.8c-0.4,0.6-1.2,1.2-1.9,1.4
				c-1.2,0.3-1.9-0.4-2.1-1.3l5.8-1.5l0-0.7C25.9,101.8,24,100,21.7,100.6"/>
			<polyline class="st1" points="29.5,94.7 26.9,95.4 27.4,110 30,109.3 29.5,94.7 			"/>
			<polyline class="st1" points="33.9,93.6 31.4,94.2 31.8,108.8 34.4,108.1 33.9,93.6 			"/>
			<polyline class="st1" points="39.6,99.9 35.6,101 35.7,103.8 39.7,102.7 39.6,99.9 			"/>
			<path class="st1" d="M45.3,102.4c-0.6,0.1-1.2,0-1.6-0.5l-0.1-3.2c0.3-0.6,1-1.2,1.5-1.4c1-0.3,1.8,0.5,1.9,2.1
				C47.1,101,46.3,102.2,45.3,102.4 M43.4,91l-2.6,0.7l0.5,14.5l2.6-0.7l0-1.2c0.7,0.8,1.5,1.1,2.4,0.8c2-0.5,3.5-2.9,3.4-6.5
				c-0.1-3.4-1.7-5.1-3.7-4.6c-0.9,0.2-1.7,0.9-2.3,2.1L43.4,91"/>
			<path class="st1" d="M53.1,96.6c0.1-0.8,0.5-1.9,1.6-2.2c1.2-0.3,1.6,0.6,1.7,1.4L53.1,96.6 M54.6,91.8c-2.5,0.7-4.2,3.6-4.1,6.7
				c0.1,3.4,2.1,5,4.6,4.4c1.2-0.3,2.6-1.1,3.3-2.3l-1.2-1.8c-0.4,0.6-1.2,1.2-1.9,1.4c-1.2,0.3-1.9-0.4-2.1-1.3l5.7-1.5l0-0.7
				C58.8,93,57,91.2,54.6,91.8"/>
			<path class="st1" d="M62.6,89.9L60,90.6l0.3,10.5l2.6-0.7L62.6,89.9 M61.1,85.1c-0.8,0.2-1.4,1.2-1.4,2.3c0,1.1,0.7,1.7,1.5,1.5
				s1.4-1.2,1.4-2.3C62.6,85.6,61.9,84.9,61.1,85.1"/>
			<path class="st1" d="M69.8,87.7c-1.4,0.4-2.3,1.4-2.7,2.3l0-1.3l-2.6,0.7l0.3,10.5l2.6-0.7l-0.2-6.8c0.3-0.6,0.8-1.2,1.5-1.4
				c0.8-0.2,1.3,0.1,1.4,1.4l0.2,6.1l2.6-0.7l-0.2-7.5C72.5,88.4,71.6,87.2,69.8,87.7"/>
			<path class="st1" d="M78.5,93.1c-1,0.3-1.8-0.3-1.8-1.9c0-1.5,0.7-2.5,1.7-2.8c0.5-0.1,1.2,0,1.6,0.5l0.1,2.8
				C79.7,92.4,79,93,78.5,93.1 M77.4,85.7c-2,0.5-3.5,2.8-3.4,6.2c0.1,3.6,1.8,4.9,3.7,4.4c0.9-0.2,1.7-1,2.3-2.2l0,0.8
				c0.1,2-1.1,2.7-2,3c-0.9,0.3-1.8,0.1-2.5-0.6l-1,2.7c1.1,0.8,2.2,1,3.6,0.6c2-0.5,4.6-2.1,4.4-6.4l-0.3-9.6l-2.6,0.7l0,1.2
				C79.1,85.7,78.3,85.5,77.4,85.7"/>
			<path class="st1" d="M86.8,90.2c-0.9,0.2-1.5,1.4-1.5,2.5s0.8,1.9,1.6,1.6c0.9-0.2,1.5-1.4,1.5-2.5
				C88.4,90.7,87.7,89.9,86.8,90.2 M86.4,79.3c-1.4,0.4-2.7,1.4-3.6,3l1.7,2c0.4-0.8,1.1-1.4,1.7-1.6c0.7-0.2,1,0.1,1,0.6
				c0,0.5-0.3,0.9-0.7,1.3c-0.6,0.7-1.4,1.7-1.3,3.2c0,0.8,0.2,1.4,0.6,1.9l2.2-1.3c-0.1-0.1-0.3-0.4-0.3-0.8c0-0.7,0.4-1.3,0.9-1.9
				c0.7-0.9,1.5-2,1.5-3.8C90.1,79.7,88.6,78.7,86.4,79.3"/>
		</g>
	</g>
	<g>
		<g class="st2">
			<defs>
				<polygon id="SVGID_3_" class="st2" points="2.1,118.5 -1.2,15.8 109.3,-13.8 112.6,88.9 				"/>
			</defs>
			<clipPath id="SVGID_4_">
				<use xlink:href="#SVGID_3_"  style="overflow:visible;"/>
			</clipPath>
			<g class="st3">
				<g>
					<g>
						<g>
							<polyline class="st4" points="10.4,12.7 7.5,13.5 7.7,18.9 3.1,20.1 2.9,14.7 0,15.5 0.5,30 3.3,29.2 3.2,23.4 7.8,22.2 
								8,28 10.8,27.2 10.4,12.7 							"/>
							<path class="st4" d="M16.6,23c-1.1,0.3-1.8-0.7-1.8-2.1c0-1.4,0.5-2.7,1.6-3c1.1-0.3,1.8,0.7,1.9,2.1
								C18.3,21.3,17.7,22.7,16.6,23 M16.3,14.9c-2.7,0.7-4.3,3.7-4.2,6.7c0.1,3,1.8,5.1,4.6,4.4c2.8-0.7,4.3-3.8,4.2-6.7
								C20.8,16.2,19.1,14.1,16.3,14.9"/>
							<polyline class="st4" points="34.4,10.3 31.7,11 30.6,17.8 28.9,11.8 26.6,12.4 25.2,19.3 23.7,13.2 21,13.9 23.8,23.8 
								26.5,23 27.8,16.1 29.6,22.2 32.3,21.5 34.4,10.3 							"/>
							<path class="st4" d="M43.6,15.7c-1,0.3-1.8-0.5-1.9-2.1c-0.1-1.6,0.7-2.8,1.7-3c0.6-0.1,1.2,0,1.6,0.5l0.1,3.2
								C44.8,15,44.2,15.6,43.6,15.7 M47.4,2.8l-2.6,0.7L45,8.7c-0.7-0.9-1.6-1.1-2.4-0.9c-2,0.5-3.5,3-3.4,6.5
								c0.1,3.6,1.8,5.1,3.8,4.6c0.9-0.2,1.7-0.9,2.3-2.1l0,1.2l2.6-0.7L47.4,2.8"/>
							<path class="st4" d="M53.5,13.1c-1.1,0.3-1.8-0.7-1.8-2.1c0-1.4,0.5-2.7,1.6-3c1.1-0.3,1.8,0.7,1.9,2.1
								C55.2,11.4,54.6,12.8,53.5,13.1 M53.2,5c-2.7,0.7-4.3,3.7-4.2,6.7c0.1,3,1.8,5.1,4.6,4.4c2.8-0.7,4.3-3.8,4.2-6.7
								C57.7,6.4,56,4.2,53.2,5"/>
							<path class="st4" d="M61.2,7.3c0.1-0.8,0.5-2,1.6-2.3c1.2-0.3,1.6,0.6,1.7,1.4L61.2,7.3 M62.8,2.4c-2.5,0.7-4.2,3.6-4.1,6.7
								c0.1,3.4,2.1,5,4.6,4.3c1.2-0.3,2.6-1.2,3.3-2.3l-1.2-1.8c-0.4,0.6-1.2,1.2-1.9,1.4c-1.2,0.3-1.9-0.4-2.1-1.3l5.8-1.5l0-0.7
								C67,3.6,65.1,1.8,62.8,2.4"/>
							<path class="st4" d="M71.2,0.2c-2.2,0.6-3.4,2.5-3.3,4.4c0.1,2.7,2,2.5,3.4,2.5c0.8,0,1.4,0,1.4,0.5c0,0.5-0.3,0.9-1.1,1.1
								c-1,0.3-2.3-0.1-2.9-0.6l-1,2.6c0.9,0.8,2.4,1,3.8,0.6c2.3-0.6,3.6-2.5,3.6-4.5c-0.1-2.8-2.1-2.7-3.5-2.6
								c-0.9,0-1.3,0-1.3-0.5c0-0.5,0.4-0.8,1-1c1-0.3,1.9,0,2.4,0.5l0.9-2.5C73.8,0.1,72.6-0.2,71.2,0.2"/>
							<path class="st4" d="M3.4,42.8l-2.6,0.7L1.3,58l2.6-0.7l-0.2-6.8c0.3-0.6,0.8-1.2,1.5-1.4c0.8-0.2,1.3,0.1,1.4,1.3l0.2,6.1
								l2.6-0.7l-0.2-7.5c-0.1-1.9-0.9-3.1-2.8-2.6c-1.4,0.4-2.3,1.4-2.7,2.3L3.4,42.8"/>
							<path class="st4" d="M15,51.6c-1.1,0.3-1.8-0.7-1.8-2.1c0-1.4,0.5-2.7,1.7-3c1.1-0.3,1.8,0.7,1.9,2.1
								C16.7,50,16.1,51.3,15,51.6 M14.7,43.5c-2.7,0.7-4.3,3.7-4.2,6.7c0.1,3,1.8,5.1,4.6,4.4c2.8-0.7,4.3-3.8,4.2-6.7
								S17.5,42.8,14.7,43.5"/>
							<path class="st4" d="M28.5,40.1L26,40.8l0.2,6.8c-0.3,0.6-0.8,1.2-1.5,1.4c-0.8,0.2-1.4-0.1-1.4-1.3l-0.2-6.1l-2.6,0.7
								l0.2,7.5c0.1,1.9,0.9,3.1,2.8,2.6c1.4-0.4,2.3-1.4,2.7-2.3l0,1.3l2.6-0.7L28.5,40.1"/>
							<path class="st4" d="M33.5,38.5c-2.2,0.6-3.4,2.5-3.4,4.4c0.1,2.7,2,2.5,3.4,2.5c0.8,0,1.4,0,1.4,0.5c0,0.5-0.3,0.9-1.1,1.1
								c-1,0.3-2.3-0.1-2.9-0.6l-1,2.6c0.9,0.7,2.4,1,3.8,0.6c2.3-0.6,3.6-2.5,3.6-4.5c-0.1-2.8-2.1-2.7-3.5-2.6
								c-0.9,0-1.3,0-1.3-0.5c0-0.5,0.4-0.8,1-1c1-0.3,1.9,0,2.4,0.5l0.9-2.5C36,38.4,34.8,38.1,33.5,38.5"/>
							<path class="st4" d="M41.1,36.7l-2.6,0.7l0.3,10.5l2.6-0.7L41.1,36.7 M39.6,31.9c-0.8,0.2-1.4,1.2-1.4,2.3
								c0,1.1,0.7,1.7,1.5,1.5c0.8-0.2,1.4-1.2,1.4-2.3C41.1,32.4,40.4,31.7,39.6,31.9"/>
							<path class="st4" d="M48.3,34.5c-1.4,0.4-2.3,1.4-2.7,2.3l0-1.3l-2.6,0.7l0.3,10.5l2.6-0.7l-0.2-6.8c0.3-0.6,0.8-1.2,1.5-1.4
								c0.8-0.2,1.3,0.1,1.4,1.4l0.2,6.1l2.6-0.7l-0.2-7.4C51,35.2,50.1,34,48.3,34.5"/>
							<path class="st4" d="M57,39.9c-1,0.3-1.8-0.3-1.8-1.9c0-1.5,0.7-2.5,1.7-2.8c0.5-0.1,1.2,0,1.6,0.5l0.1,2.8
								C58.2,39.2,57.5,39.8,57,39.9 M55.9,32.5c-2,0.5-3.5,2.8-3.4,6.2c0.1,3.6,1.8,4.9,3.7,4.4c0.9-0.2,1.7-1,2.3-2.2l0,0.8
								c0.1,2-1.1,2.7-2,3c-0.9,0.3-1.8,0.1-2.5-0.6l-1,2.7c1.1,0.8,2.2,1,3.6,0.6c2-0.5,4.6-2.1,4.4-6.4l-0.3-9.6l-2.6,0.7l0,1.2
								C57.6,32.5,56.8,32.3,55.9,32.5"/>
							<path class="st4" d="M70.6,37.5c-0.7,0.2-1.3,0-1.3-0.9c0-0.8,0.6-1.4,1.2-1.6c0.6-0.2,1.2-0.1,1.5,0.4l0,0.9
								C71.7,36.9,71.2,37.3,70.6,37.5 M70.6,28.6c-1.2,0.3-2.6,1.2-3.6,2.6l1,1.9c0.6-0.9,1.4-1.5,2.3-1.7c1-0.3,1.7,0.2,1.7,1.1
								l0,1.3c-0.5-0.7-1.5-0.8-2.5-0.5c-1.2,0.3-2.7,1.5-2.7,4c0.1,2.4,1.6,3.1,2.9,2.7c1-0.3,2-1.1,2.5-2l0,1l2.6-0.7l-0.2-6.6
								C74.3,28.5,72.5,28,70.6,28.6"/>
							<path class="st4" d="M79.5,22.2c-1.7,0.4-2.8,2.2-2.8,4.5l0,0.5l-1.3,0.4l0.1,2.9l1.3-0.4l0.2,7.6l2.6-0.7l-0.2-7.6l1.6-0.4
								L81,26l-1.6,0.4l0-0.4c0-0.8,0.3-1.3,0.8-1.5c0.2-0.1,0.5-0.1,0.7,0l0.4-2.4C80.8,22,80.2,22,79.5,22.2 M85.3,20.6
								c-1.7,0.4-2.8,2.2-2.8,4.5l0,0.5L81.2,26l0.1,2.9l1.3-0.4l0.2,7.6l2.6-0.7l-0.2-7.6l1.6-0.4l-0.1-2.9l-1.6,0.4l0-0.4
								c0-0.8,0.3-1.3,0.8-1.5c0.2-0.1,0.5-0.1,0.7,0l0.4-2.4C86.6,20.4,86,20.4,85.3,20.6"/>
							<path class="st4" d="M90.1,27.8c0.1-0.8,0.5-1.9,1.6-2.2c1.2-0.3,1.6,0.6,1.7,1.4L90.1,27.8 M91.6,22.9
								c-2.5,0.7-4.2,3.6-4.1,6.7c0.1,3.4,2.1,5,4.6,4.3c1.2-0.3,2.6-1.1,3.3-2.3l-1.2-1.8c-0.4,0.6-1.2,1.2-1.9,1.4
								c-1.2,0.3-1.9-0.4-2.1-1.3l5.7-1.5l0-0.7C95.8,24.1,94,22.3,91.6,22.9"/>
							<path class="st4" d="M100.9,20.4c-2.5,0.7-4.3,3.4-4.2,6.7c0.1,3.3,2.1,5,4.6,4.3c1.7-0.5,2.8-1.8,3.2-2.8l-1.7-1.6
								c-0.3,0.7-0.8,1.2-1.5,1.4c-1.1,0.3-1.9-0.5-2-2.1c-0.1-1.6,0.7-2.8,1.8-3.1c0.7-0.2,1.2,0.1,1.6,0.6l1.6-2.5
								C103.7,20.7,102.6,20,100.9,20.4"/>
							<path class="st4" d="M108.4,15.8l-2.6,0.7l0.1,2.9l-1.3,0.4l0.1,2.9l1.3-0.4l0.2,4.8c0.1,2,1,2.9,2.6,2.4
								c1-0.3,1.6-0.7,1.9-1.2l-0.6-2.4c-0.1,0.2-0.4,0.4-0.6,0.4c-0.5,0.1-0.7-0.3-0.8-0.9l-0.1-3.8l1.6-0.4l-0.1-2.9l-1.6,0.4
								L108.4,15.8"/>
							<path class="st4" d="M9.8,73.3L7.1,74l-1.6,7.2l-2-6.2l-2.7,0.7l3.5,9.8l-0.2,0.6C4,86.6,3.7,86.9,3.1,87
								c-0.2,0.1-0.5,0.1-0.6,0l-0.3,3.1C2.4,90.1,3,90,3.3,90c1.5-0.5,2.7-1.3,3.3-3.7L9.8,73.3"/>
							<path class="st4" d="M14.7,79.9c-1.1,0.3-1.8-0.7-1.8-2.1c0-1.4,0.5-2.7,1.7-3c1.1-0.3,1.8,0.7,1.9,2.1
								C16.5,78.3,15.9,79.6,14.7,79.9 M14.5,71.8c-2.7,0.7-4.3,3.7-4.2,6.7c0.1,3,1.8,5.1,4.6,4.4c2.8-0.7,4.3-3.8,4.2-6.7
								C19,73.2,17.2,71.1,14.5,71.8"/>
							<path class="st4" d="M28.3,68.4l-2.6,0.7l0.2,6.8c-0.3,0.6-0.8,1.2-1.5,1.4C23.6,77.5,23,77.2,23,76l-0.2-6.1l-2.6,0.7
								l0.2,7.5c0.1,1.9,0.9,3.1,2.8,2.6c1.4-0.4,2.3-1.4,2.7-2.3l0,1.3l2.6-0.7L28.3,68.4"/>
							<path class="st4" d="M35.2,66.2c-1,0.3-2,1.3-2.5,2.3l0-1.3l-2.6,0.7l0.3,10.5l2.6-0.7L32.8,71c0.3-0.7,1.2-1.3,1.9-1.5
								c0.3-0.1,0.5-0.1,0.6-0.1L35.2,66.2"/>
							<path class="st4" d="M44,59.9c-1.7,0.4-2.8,2.2-2.8,4.5l0,0.5l-1.3,0.4l0.1,2.9l1.3-0.4l0.2,7.6l2.6-0.7l-0.2-7.6l1.6-0.4
								l-0.1-2.9l-1.6,0.4l0-0.4c0-0.8,0.3-1.3,0.8-1.5c0.2-0.1,0.5-0.1,0.7,0l0.4-2.4C45.3,59.7,44.7,59.7,44,59.9"/>
							<path class="st4" d="M50.1,71.2c-0.7,0.2-1.3,0-1.3-0.9c0-0.8,0.6-1.4,1.2-1.6c0.6-0.2,1.2-0.1,1.5,0.4l0,0.9
								C51.3,70.6,50.7,71,50.1,71.2 M50.1,62.3c-1.2,0.3-2.6,1.2-3.6,2.6l1,1.9c0.6-0.9,1.4-1.5,2.3-1.7c1-0.3,1.7,0.2,1.7,1.1
								l0,1.3c-0.5-0.7-1.5-0.8-2.5-0.6c-1.2,0.3-2.7,1.5-2.7,4.1c0.1,2.4,1.6,3,2.9,2.7c1-0.3,2-1.1,2.5-2l0,1l2.6-0.7L54,65.5
								C53.9,62.2,52,61.7,50.1,62.3"/>
							<path class="st4" d="M66,58c-1.3,0.3-2.3,1.6-2.7,2.6c-0.4-1.2-1.2-1.6-2.4-1.3c-1.3,0.3-2.3,1.6-2.6,2.3l0-1.3L55.7,61
								L56,71.5l2.6-0.7L58.4,64c0.3-0.5,0.7-1.2,1.4-1.4c0.8-0.2,1.1,0.3,1.1,1.1l0.2,6.4l2.6-0.7l-0.2-6.8
								c0.2-0.5,0.7-1.2,1.4-1.4c0.8-0.2,1.1,0.3,1.1,1.1l0.2,6.4l2.6-0.7l-0.2-7.6C68.5,58.3,67.5,57.6,66,58"/>
							<path class="st4" d="M72.9,56.4l-2.6,0.7l0.3,10.5l2.6-0.7L72.9,56.4 M71.5,51.6c-0.8,0.2-1.4,1.2-1.4,2.3
								c0,1.1,0.7,1.7,1.5,1.5c0.8-0.2,1.4-1.2,1.4-2.3C73,52,72.3,51.4,71.5,51.6"/>
							<polyline class="st4" points="77.2,51.2 74.7,51.9 75.1,66.4 77.7,65.7 77.2,51.2 							"/>
							<path class="st4" d="M87.2,52.6l-2.7,0.7l-1.6,7.2l-2-6.2L78.1,55l3.6,9.8l-0.2,0.6c-0.1,0.5-0.5,0.7-1.1,0.9
								c-0.2,0.1-0.5,0.1-0.6,0l-0.3,3.1c0.3,0,0.9-0.1,1.1-0.1c1.5-0.5,2.7-1.3,3.3-3.7L87.2,52.6"/>
							<path class="st4" d="M89.1,47.8c-0.8,0.2-1.5,1.3-1.5,2.4c0,1.1,0.6,1.7,1.4,1.5c0.1,0,0.3-0.1,0.4-0.2
								c-0.2,0.9-0.8,2-1.4,2.5l1.1,0.8c1.1-1.4,1.8-3.2,1.8-4.9C90.9,48.3,90,47.6,89.1,47.8"/>
							<path class="st4" d="M95,50.2c-2.2,0.6-3.4,2.5-3.3,4.4c0.1,2.7,2,2.5,3.4,2.5c0.8,0,1.4,0,1.4,0.5c0,0.5-0.3,0.9-1.1,1.1
								c-1,0.3-2.3-0.1-2.9-0.6l-1,2.6c0.9,0.8,2.4,1,3.8,0.6c2.3-0.6,3.6-2.5,3.6-4.5c-0.1-2.8-2.1-2.7-3.5-2.6
								c-0.9,0-1.3,0-1.3-0.5c0-0.5,0.4-0.8,1-1c1-0.3,1.9,0,2.4,0.5l0.9-2.5C97.6,50.1,96.4,49.9,95,50.2"/>
							<polyline class="st4" points="15.1,100.1 12.4,100.8 11.3,107.6 9.5,101.6 7.2,102.2 5.9,109.1 4.4,103 1.7,103.7 4.4,113.6 
								7.2,112.8 8.5,105.9 10.2,112 13,111.3 15.1,100.1 							"/>
							<path class="st4" d="M18.1,103.5c0.1-0.8,0.5-2,1.6-2.2c1.2-0.3,1.6,0.6,1.7,1.4L18.1,103.5 M19.7,98.6
								c-2.5,0.7-4.2,3.6-4.1,6.7c0.1,3.4,2.1,5,4.6,4.4c1.2-0.3,2.6-1.2,3.3-2.3l-1.2-1.8c-0.4,0.6-1.2,1.2-1.9,1.4
								c-1.2,0.3-1.9-0.4-2.1-1.3l5.8-1.5l0-0.7C23.9,99.8,22,98,19.7,98.6"/>
							<polyline class="st4" points="27.5,92.7 24.9,93.4 25.4,108 28,107.3 27.5,92.7 							"/>
							<polyline class="st4" points="31.9,91.6 29.4,92.2 29.8,106.8 32.4,106.1 31.9,91.6 							"/>
							<polyline class="st4" points="37.6,97.9 33.6,99 33.7,101.8 37.7,100.7 37.6,97.9 							"/>
							<path class="st4" d="M43.3,100.4c-0.6,0.1-1.2,0-1.6-0.5l-0.1-3.2c0.3-0.6,1-1.2,1.5-1.4c1-0.3,1.8,0.5,1.9,2.1
								C45.1,99,44.3,100.2,43.3,100.4 M41.4,89l-2.6,0.7l0.5,14.5l2.6-0.7l0-1.2c0.7,0.8,1.5,1.1,2.4,0.8c2-0.5,3.5-2.9,3.4-6.5
								c-0.1-3.4-1.7-5.1-3.7-4.6c-0.9,0.2-1.7,0.9-2.3,2.1L41.4,89"/>
							<path class="st4" d="M51.1,94.6c0.1-0.8,0.5-1.9,1.6-2.2c1.2-0.3,1.6,0.6,1.7,1.4L51.1,94.6 M52.6,89.8
								c-2.5,0.7-4.2,3.6-4.1,6.7c0.1,3.4,2.1,5,4.6,4.4c1.2-0.3,2.6-1.1,3.3-2.3l-1.2-1.8c-0.4,0.6-1.2,1.2-1.9,1.4
								c-1.2,0.3-1.9-0.4-2.1-1.3l5.7-1.5l0-0.7C56.8,91,55,89.2,52.6,89.8"/>
							<path class="st4" d="M60.6,87.9L58,88.6l0.3,10.5l2.6-0.7L60.6,87.9 M59.1,83.1c-0.8,0.2-1.4,1.2-1.4,2.3
								c0,1.1,0.7,1.7,1.5,1.5s1.4-1.2,1.4-2.3C60.6,83.6,59.9,82.9,59.1,83.1"/>
							<path class="st4" d="M67.8,85.7c-1.4,0.4-2.3,1.4-2.7,2.3l0-1.3l-2.6,0.7l0.3,10.5l2.6-0.7l-0.2-6.8c0.3-0.6,0.8-1.2,1.5-1.4
								c0.8-0.2,1.3,0.1,1.4,1.4l0.2,6.1l2.6-0.7l-0.2-7.5C70.5,86.4,69.6,85.2,67.8,85.7"/>
							<path class="st4" d="M76.5,91.1c-1,0.3-1.8-0.3-1.8-1.9c0-1.5,0.7-2.5,1.7-2.8c0.5-0.1,1.2,0,1.6,0.5l0.1,2.8
								C77.7,90.4,77,91,76.5,91.1 M75.4,83.7c-2,0.5-3.5,2.8-3.4,6.2c0.1,3.6,1.8,4.9,3.7,4.4c0.9-0.2,1.7-1,2.3-2.2l0,0.8
								c0.1,2-1.1,2.7-2,3c-0.9,0.3-1.8,0.1-2.5-0.6l-1,2.7c1.1,0.8,2.2,1,3.6,0.6c2-0.5,4.6-2.1,4.4-6.4l-0.3-9.6l-2.6,0.7l0,1.2
								C77.1,83.7,76.3,83.5,75.4,83.7"/>
							<path class="st4" d="M84.8,88.2c-0.9,0.2-1.5,1.4-1.5,2.5s0.8,1.9,1.6,1.6c0.9-0.2,1.5-1.4,1.5-2.5
								C86.4,88.7,85.7,87.9,84.8,88.2 M84.4,77.3c-1.4,0.4-2.7,1.4-3.6,3l1.7,2c0.4-0.8,1.1-1.4,1.7-1.6c0.7-0.2,1,0.1,1,0.6
								c0,0.5-0.3,0.9-0.7,1.3c-0.6,0.7-1.4,1.7-1.3,3.2c0,0.8,0.2,1.4,0.6,1.9l2.2-1.3c-0.1-0.1-0.3-0.4-0.3-0.8
								c0-0.7,0.4-1.3,0.9-1.9c0.7-0.9,1.5-2,1.5-3.8C88.1,77.7,86.6,76.7,84.4,77.3"/>
						</g>
					</g>
				</g>
			</g>
		</g>
	</g>
</g>
<g>
</g>
<g>
</g>
<g>
</g>
<g>
</g>
<g>
</g>
<g>
</g>
</svg>
