<svg xmlns="http://www.w3.org/2000/svg" xmlns:xlink="http://www.w3.org/1999/xlink" viewBox="0 0 308.51 287.21"><defs><style>.cls-1{fill:none;}.cls-2{isolation:isolate;}.cls-3{opacity:0.75;mix-blend-mode:multiply;}.cls-4{clip-path:url(#clip-path);}.cls-5{fill:#005e8a;}.cls-6{clip-path:url(#clip-path-2);}.cls-7{fill:#fff;}</style><clipPath id="clip-path" transform="translate(-1.27 -13.91)"><polygon class="cls-1" points="11.22 310.11 4 84.27 303.56 4 310.78 229.84 11.22 310.11"/></clipPath><clipPath id="clip-path-2" transform="translate(-1.27 -13.91)"><polygon class="cls-1" points="7.22 306.11 0 80.27 299.56 0 306.78 225.84 7.22 306.11"/></clipPath></defs><title>tagline</title><g class="cls-2"><g id="Layer_2" data-name="Layer 2"><g id="all_assets" data-name="all assets"><g class="cls-3"><g class="cls-4"><polyline class="cls-5" points="25.14 66.72 19.28 68.29 19.64 79.33 10.21 81.86 9.85 70.82 4 72.39 4.95 101.98 10.8 100.41 10.42 88.52 19.85 85.99 20.23 97.88 26.09 96.31 25.14 66.72"/><path class="cls-5" d="M39,101.56c-2.29.61-3.62-1.4-3.71-4.29s1.09-5.52,3.38-6.14,3.68,1.39,3.77,4.23-1.12,5.58-3.44,6.2M38.46,85.1c-5.58,1.5-8.78,7.59-8.59,13.62s3.73,10.37,9.31,8.87S48,100,47.81,93.92s-3.7-10.33-9.35-8.82" transform="translate(-1.27 -13.91)"/><polyline class="cls-5" points="74.04 61.85 68.63 63.3 66.43 77.14 62.77 64.87 58.11 66.12 55.29 80.12 52.22 67.69 46.84 69.14 52.4 89.27 58.05 87.75 60.69 73.67 64.21 86.1 69.86 84.59 74.04 61.85"/><path class="cls-5" d="M94.13,86.79c-2.08.55-3.68-1.08-3.78-4.27s1.37-5.6,3.45-6.16A3.13,3.13,0,0,1,97,77.42L97.23,84a5.53,5.53,0,0,1-3.1,2.81m7.6-26.34-5.21,1.4.34,10.69a4.49,4.49,0,0,0-5-1.76C87.78,71.89,84.75,77,85,84c.23,7.27,3.6,10.4,7.65,9.32,1.84-.5,3.48-1.92,4.77-4.32l.08,2.48,5.21-1.39-1-29.6" transform="translate(-1.27 -13.91)"/><path class="cls-5" d="M114.21,81.41c-2.28.61-3.61-1.41-3.71-4.29s1.1-5.53,3.37-6.14,3.69,1.38,3.78,4.22-1.12,5.58-3.44,6.21M113.68,65c-5.58,1.49-8.78,7.59-8.59,13.62s3.73,10.36,9.31,8.87,8.82-7.64,8.63-13.68-3.69-10.33-9.35-8.81" transform="translate(-1.27 -13.91)"/><path class="cls-5" d="M130,69.61c.15-1.61,1-4,3.25-4.58s3.34,1.3,3.53,2.76L130,69.61m3.08-9.86c-5.14,1.38-8.58,7.35-8.38,13.57.22,7,4.27,10.22,9.34,8.86a12.25,12.25,0,0,0,6.79-4.69l-2.36-3.65a7.67,7.67,0,0,1-3.95,2.89,3.24,3.24,0,0,1-4.31-2.7l11.71-3.13,0-1.47c-.23-7.27-3.92-11-8.79-9.68" transform="translate(-1.27 -13.91)"/><path class="cls-5" d="M150.34,55.12a9,9,0,0,0-6.82,8.95c.17,5.45,4.14,5.15,7,5,1.71-.09,2.85,0,2.88,1.11,0,.93-.59,1.77-2.16,2.19a7.33,7.33,0,0,1-5.87-1.29l-2,5.29c1.8,1.53,4.87,2,7.8,1.22,4.73-1.27,7.39-5,7.26-9.1-.18-5.69-4.36-5.46-7.17-5.34-1.75.07-2.64,0-2.68-1s.81-1.7,2-2a5.31,5.31,0,0,1,4.91,1.06l1.86-5.06a8.37,8.37,0,0,0-7-1" transform="translate(-1.27 -13.91)"/><path class="cls-5" d="M174.29,41l-5.24,1.4L170,72l5.24-1.41-.44-13.84a5.36,5.36,0,0,1,3.1-2.94c1.66-.44,2.75.12,2.83,2.74l.4,12.46,5.24-1.4-.49-15.26c-.12-4-1.91-6.25-5.66-5.24a9.3,9.3,0,0,0-5.58,4.67L174.29,41" transform="translate(-1.27 -13.91)"/><path class="cls-5" d="M197.87,59c-2.28.61-3.62-1.41-3.71-4.29s1.09-5.53,3.38-6.14,3.68,1.39,3.77,4.23-1.13,5.58-3.44,6.2m-.53-16.46c-5.58,1.5-8.78,7.59-8.59,13.62s3.73,10.37,9.31,8.87,8.82-7.64,8.63-13.67S203,41,197.34,42.53" transform="translate(-1.27 -13.91)"/><path class="cls-5" d="M225.44,35.53l-5.24,1.41.44,13.85a5.22,5.22,0,0,1-3.06,2.92c-1.71.45-2.76-.16-2.84-2.73l-.4-12.47-5.24,1.4.49,15.27c.13,3.94,1.88,6.25,5.63,5.24a9.29,9.29,0,0,0,5.58-4.62l.08,2.57,5.25-1.4-.69-21.44" transform="translate(-1.27 -13.91)"/><path class="cls-5" d="M235.5,32.31a9,9,0,0,0-6.82,8.94c.17,5.45,4.14,5.15,6.95,5,1.72-.1,2.85,0,2.89,1.1,0,.94-.6,1.77-2.16,2.19a7.31,7.31,0,0,1-5.88-1.29l-2,5.29c1.8,1.53,4.88,2,7.8,1.22,4.73-1.27,7.39-5,7.26-9.1-.18-5.69-4.36-5.46-7.17-5.34-1.75.07-2.64,0-2.67-1s.79-1.7,2-2a5.32,5.32,0,0,1,4.91,1l1.87-5.06a8.37,8.37,0,0,0-7-1" transform="translate(-1.27 -13.91)"/><path class="cls-5" d="M251,28.69l-5.25,1.41.69,21.43,5.25-1.4L251,28.69m-3-9.81c-1.66.45-2.94,2.53-2.87,4.71s1.45,3.54,3.12,3.1,2.94-2.53,2.87-4.7-1.45-3.55-3.12-3.11" transform="translate(-1.27 -13.91)"/><path class="cls-5" d="M265.69,24.22a9.32,9.32,0,0,0-5.59,4.67L260,26.27l-5.24,1.4.68,21.44,5.25-1.41-.45-13.84a5.39,5.39,0,0,1,3.14-2.95c1.63-.43,2.71.21,2.8,2.84l.39,12.38,5.25-1.41-.48-15.18c-.13-3.95-1.93-6.33-5.67-5.32" transform="translate(-1.27 -13.91)"/><path class="cls-5" d="M283.34,35.19c-2.07.56-3.66-.67-3.76-3.82S281,26.21,283,25.65a3.08,3.08,0,0,1,3.19,1.07l.18,5.72a5.36,5.36,0,0,1-3.07,2.75m-2.23-15.11C277,21.19,274,25.75,274.2,32.81c.23,7.23,3.58,10,7.6,8.88,1.87-.5,3.47-1.95,4.77-4.41l.05,1.64c.13,4-2.29,5.59-4,6a4.84,4.84,0,0,1-5.08-1.14l-2.13,5.49a7.86,7.86,0,0,0,7.39,1.24c4.09-1.09,9.33-4.38,9.05-13.12l-.62-19.53L286,19.31l.08,2.53a4.45,4.45,0,0,0-5-1.76" transform="translate(-1.27 -13.91)"/><path class="cls-5" d="M14.7,171.9c-1.4.37-2.65-.1-2.7-1.78a3.2,3.2,0,0,1,2.54-3.19,2.74,2.74,0,0,1,3,.72l.06,1.91a4.46,4.46,0,0,1-2.88,2.34m-.06-18.15a13.3,13.3,0,0,0-7.35,5.32l2,3.8a8.67,8.67,0,0,1,4.59-3.51c2.11-.57,3.38.35,3.44,2.21l.08,2.71c-1-1.33-3-1.7-5.18-1.12-2.52.68-5.61,3.07-5.44,8.26.15,4.84,3.36,6.22,5.88,5.55a8.3,8.3,0,0,0,5-4l.07,2.13,5.24-1.4-.43-13.41c-.21-6.65-4-7.56-7.93-6.5" transform="translate(-1.27 -13.91)"/><path class="cls-5" d="M32.86,140.72c-3.4.91-5.79,4.55-5.65,9.12l0,1.06-2.73.73.19,6,2.73-.73.49,15.48,5.25-1.4-.5-15.49,3.34-.89-.19-6-3.34.9,0-.89c-.05-1.64.63-2.72,1.72-3a2,2,0,0,1,1.38.08l.8-4.92a5.6,5.6,0,0,0-3.5,0m11.88-3.18c-3.4.91-5.79,4.54-5.64,9.12l0,1.06-2.72.73.19,5.94,2.72-.73.49,15.49,5.25-1.4-.5-15.49,3.34-.89-.19-6-3.34.89,0-.88c-.05-1.64.63-2.72,1.73-3a1.9,1.9,0,0,1,1.37.08l.8-4.92a5.46,5.46,0,0,0-3.5,0" transform="translate(-1.27 -13.91)"/><path class="cls-5" d="M54.44,152.12c.15-1.6,1-4,3.25-4.59s3.34,1.31,3.53,2.77l-6.78,1.82m3.09-9.87c-5.15,1.38-8.59,7.37-8.4,13.57.23,7,4.28,10.23,9.35,8.87A12.17,12.17,0,0,0,65.27,160l-2.35-3.66a7.62,7.62,0,0,1-4,2.89,3.23,3.23,0,0,1-4.31-2.69l11.71-3.13,0-1.47c-.23-7.28-3.92-11-8.78-9.69" transform="translate(-1.27 -13.91)"/><path class="cls-5" d="M76.41,137.19c-5.14,1.38-8.84,6.93-8.62,13.64s4.2,10.24,9.34,8.86a10.2,10.2,0,0,0,6.61-5.75l-3.53-3.26a4.9,4.9,0,0,1-3,2.91c-2.18.58-3.92-1-4-4.2s1.51-5.64,3.68-6.23A2.7,2.7,0,0,1,80,144.37l3.27-5c-1-1.65-3.33-3.1-6.87-2.15" transform="translate(-1.27 -13.91)"/><path class="cls-5" d="M91.66,127.74l-5.2,1.39.18,5.86-2.72.73.19,5.94,2.72-.73.32,9.72c.13,4.13,2,5.83,5.33,4.93a6.41,6.41,0,0,0,3.84-2.46l-1.19-4.88a2.31,2.31,0,0,1-1.31.89c-.92.25-1.49-.54-1.53-1.78L92,139.54l3.33-.9-.19-5.94-3.33.89-.19-5.85" transform="translate(-1.27 -13.91)"/><path class="cls-5" d="M122.79,125.3l-5.55,1.49-3.31,14.58-4.14-12.59-5.52,1.48,7.23,20-.34,1.25c-.24,1-1,1.47-2.17,1.79a2.06,2.06,0,0,1-1.3-.05l-.56,6.28a7.89,7.89,0,0,0,2.25-.25c3.14-.92,5.59-2.61,6.77-7.49l6.64-26.49" transform="translate(-1.27 -13.91)"/><path class="cls-5" d="M132.72,138.7c-2.27.61-3.61-1.4-3.7-4.28s1.09-5.53,3.37-6.14,3.69,1.38,3.78,4.22-1.13,5.58-3.45,6.2m-.52-16.45c-5.58,1.49-8.79,7.58-8.59,13.62s3.73,10.37,9.31,8.88,8.82-7.66,8.63-13.69-3.7-10.33-9.35-8.81" transform="translate(-1.27 -13.91)"/><path class="cls-5" d="M160.3,115.25l-5.24,1.4.44,13.85a5.18,5.18,0,0,1-3.07,2.92c-1.7.46-2.75-.15-2.83-2.72l-.4-12.48L144,119.63l.48,15.27c.13,3.95,1.89,6.25,5.63,5.25a9.39,9.39,0,0,0,5.59-4.63l.08,2.57,5.24-1.41-.68-21.43" transform="translate(-1.27 -13.91)"/><path class="cls-5" d="M174.47,110.92c-2,.53-4,2.59-5,4.61l-.09-2.7-5.24,1.4.68,21.43,5.24-1.4-.43-13.58a6.39,6.39,0,0,1,3.79-3,3.3,3.3,0,0,1,1.29-.12l-.21-6.61" transform="translate(-1.27 -13.91)"/><path class="cls-5" d="M194,121.4c-2.07.56-3.66-.67-3.76-3.82s1.38-5.16,3.46-5.72a3.08,3.08,0,0,1,3.19,1.07l.18,5.72A5.33,5.33,0,0,1,194,121.4m-2.23-15.11c-4.12,1.11-7.13,5.67-6.9,12.73.23,7.23,3.57,10,7.59,8.88,1.87-.5,3.48-2,4.77-4.4l.05,1.64c.13,4-2.29,5.58-4,6a4.84,4.84,0,0,1-5.08-1.14L186,135.53a7.83,7.83,0,0,0,7.38,1.24c4.09-1.09,9.33-4.38,9.05-13.12l-.62-19.53-5.21,1.4.08,2.53a4.45,4.45,0,0,0-5-1.76" transform="translate(-1.27 -13.91)"/><path class="cls-5" d="M214,116.92c-2.28.61-3.61-1.41-3.71-4.29s1.1-5.53,3.37-6.14,3.69,1.39,3.78,4.23-1.13,5.58-3.44,6.2m-.53-16.46c-5.58,1.49-8.78,7.59-8.59,13.62s3.73,10.37,9.31,8.88,8.82-7.65,8.63-13.69-3.7-10.33-9.35-8.81" transform="translate(-1.27 -13.91)"/><path class="cls-5" d="M232.61,113.51c-1.4.37-2.65-.1-2.71-1.78a3.21,3.21,0,0,1,2.55-3.19,2.72,2.72,0,0,1,3,.72l.06,1.91a4.44,4.44,0,0,1-2.87,2.34m-.07-18.15a13.36,13.36,0,0,0-7.35,5.32l2,3.81a8.68,8.68,0,0,1,4.59-3.52c2.11-.56,3.38.36,3.43,2.21l.09,2.71c-1-1.33-3-1.7-5.18-1.11-2.52.67-5.6,3.07-5.44,8.26.16,4.83,3.36,6.22,5.88,5.54a8.32,8.32,0,0,0,5-4l.07,2.13,5.24-1.41-.43-13.4c-.21-6.65-4-7.57-7.93-6.51" transform="translate(-1.27 -13.91)"/><polyline class="cls-5" points="247.74 69.34 242.5 70.74 243.45 100.33 248.69 98.93 247.74 69.34"/><path class="cls-5" d="M270.16,101.88c-2.27.61-3.61-1.41-3.7-4.29s1.09-5.53,3.37-6.14,3.68,1.39,3.78,4.23-1.13,5.58-3.45,6.2m-.52-16.46c-5.58,1.49-8.79,7.59-8.59,13.62s3.73,10.38,9.31,8.88,8.82-7.65,8.63-13.69-3.7-10.33-9.35-8.81" transform="translate(-1.27 -13.91)"/><path class="cls-5" d="M288.13,72.32c-3.4.91-5.79,4.55-5.64,9.12l0,1.06-2.72.73.19,6,2.72-.73.5,15.48,5.24-1.4L288,87l3.34-.89-.19-6-3.34.9,0-.89c-.05-1.64.64-2.72,1.73-3a2,2,0,0,1,1.38.08l.8-4.92a5.63,5.63,0,0,0-3.51,0" transform="translate(-1.27 -13.91)"/><path class="cls-5" d="M30.33,211.8c-2.59.7-4.67,3.22-5.56,5.34C24,214.79,22.33,214,20,214.57a9.32,9.32,0,0,0-5.31,4.61l-.08-2.63L9.34,218,10,239.39l5.24-1.4-.44-13.85a5.26,5.26,0,0,1,2.86-2.87c1.6-.43,2.22.66,2.27,2.3l.42,13.05,5.24-1.4-.44-13.85a5.14,5.14,0,0,1,2.89-2.88c1.57-.42,2.22.66,2.27,2.3l.42,13.05,5.21-1.4-.5-15.53c-.14-4.39-2.11-5.92-5.14-5.11" transform="translate(-1.27 -13.91)"/><path class="cls-5" d="M46.46,225.65c-1.39.37-2.64-.1-2.7-1.78a3.22,3.22,0,0,1,2.54-3.19,2.73,2.73,0,0,1,3,.73l.06,1.9a4.49,4.49,0,0,1-2.88,2.34m-.07-18.15A13.45,13.45,0,0,0,39,212.82l2,3.8a8.7,8.7,0,0,1,4.59-3.5c2.11-.57,3.37.34,3.43,2.2l.09,2.71c-1-1.33-3-1.7-5.19-1.11-2.52.67-5.6,3.06-5.43,8.26.16,4.83,3.36,6.21,5.87,5.54a8.37,8.37,0,0,0,5-4l.06,2.12,5.25-1.4L54.33,214c-.22-6.65-4-7.57-7.94-6.51" transform="translate(-1.27 -13.91)"/><polyline class="cls-5" points="61.59 181.47 56.35 182.88 57.3 212.47 62.54 211.07 62.37 205.92 63.87 203.06 67.71 209.68 74.19 207.95 67.45 197.99 73.19 186.6 66.86 188.29 62.13 198.2 61.59 181.47"/><path class="cls-5" d="M81.71,198.57,76.47,200l.68,21.44L82.39,220l-.68-21.43m-3-9.81c-1.67.45-2.94,2.53-2.87,4.71S77.33,197,79,196.56s2.94-2.53,2.87-4.7-1.45-3.55-3.12-3.1" transform="translate(-1.27 -13.91)"/><path class="cls-5" d="M96.43,194.09a9.33,9.33,0,0,0-5.59,4.68l-.08-2.63-5.24,1.41L86.2,219l5.24-1.4L91,203.73a5.38,5.38,0,0,1,3.14-2.94c1.63-.44,2.72.22,2.8,2.83l.4,12.38,5.24-1.41-.49-15.17c-.12-3.95-1.92-6.33-5.66-5.33" transform="translate(-1.27 -13.91)"/><path class="cls-5" d="M114.08,205.07c-2.08.56-3.66-.68-3.76-3.83s1.38-5.16,3.45-5.71a3.09,3.09,0,0,1,3.2,1.07l.18,5.72a5.36,5.36,0,0,1-3.07,2.75M111.84,190c-4.11,1.1-7.12,5.67-6.9,12.72.23,7.24,3.58,10,7.59,8.89,1.88-.5,3.48-2,4.77-4.41l.06,1.64c.12,4-2.3,5.58-4,6a4.86,4.86,0,0,1-5.09-1.14l-2.12,5.49a7.86,7.86,0,0,0,7.39,1.24c4.08-1.1,9.33-4.38,9-13.13l-.62-19.52-5.21,1.4.08,2.53a4.47,4.47,0,0,0-5-1.76" transform="translate(-1.27 -13.91)"/><path class="cls-5" d="M141.83,200.09c-1.39.38-2.64-.09-2.7-1.78a3.21,3.21,0,0,1,2.54-3.18,2.74,2.74,0,0,1,3,.72l.06,1.9a4.43,4.43,0,0,1-2.88,2.34m-.07-18.15a13.52,13.52,0,0,0-7.35,5.33l2,3.8a8.72,8.72,0,0,1,4.59-3.51c2.11-.56,3.37.35,3.43,2.21l.09,2.71c-1-1.34-3-1.7-5.19-1.12-2.51.68-5.6,3.07-5.43,8.26.16,4.84,3.36,6.22,5.87,5.55a8.36,8.36,0,0,0,5-4l.06,2.13,5.25-1.41-.43-13.39c-.22-6.66-4-7.58-7.94-6.52" transform="translate(-1.27 -13.91)"/><path class="cls-5" d="M170.37,190.88c-2.07.55-3.67-1.08-3.77-4.27S168,181,170,180.45a3.15,3.15,0,0,1,3.24,1.06l.21,6.58a5.61,5.61,0,0,1-3.11,2.79m7.6-26.34-5.2,1.4.34,10.69a4.52,4.52,0,0,0-5-1.76c-4.12,1.11-7.15,6.18-6.92,13.18.23,7.29,3.59,10.41,7.64,9.33,1.84-.5,3.47-1.92,4.77-4.33l.08,2.48,5.21-1.39-.95-29.6" transform="translate(-1.27 -13.91)"/><path class="cls-5" d="M186.64,179c.15-1.61,1-4,3.25-4.59s3.34,1.3,3.52,2.78L186.64,179m3.08-9.87c-5.14,1.38-8.58,7.36-8.39,13.57.23,7,4.27,10.23,9.35,8.87a12.2,12.2,0,0,0,6.79-4.69l-2.36-3.66a7.56,7.56,0,0,1-4,2.89,3.23,3.23,0,0,1-4.31-2.69l11.71-3.14-.05-1.46c-.23-7.28-3.92-11-8.79-9.69" transform="translate(-1.27 -13.91)"/><path class="cls-5" d="M208.61,164c-5.14,1.38-8.84,6.93-8.63,13.63s4.21,10.25,9.35,8.87a10.27,10.27,0,0,0,6.62-5.75l-3.54-3.27a4.94,4.94,0,0,1-3,2.92c-2.19.58-3.91-1-4-4.21s1.5-5.63,3.69-6.22a2.69,2.69,0,0,1,3.16,1.21l3.27-5c-1-1.65-3.33-3.1-6.87-2.15" transform="translate(-1.27 -13.91)"/><path class="cls-5" d="M222.31,169.4c.15-1.6,1-4,3.25-4.59s3.34,1.31,3.52,2.78l-6.77,1.81m3.08-9.87c-5.14,1.38-8.59,7.37-8.39,13.57.23,7,4.28,10.23,9.35,8.87a12.2,12.2,0,0,0,6.79-4.69l-2.35-3.66a7.62,7.62,0,0,1-4,2.89,3.22,3.22,0,0,1-4.31-2.69l11.71-3.13,0-1.47c-.23-7.28-3.92-11-8.79-9.69" transform="translate(-1.27 -13.91)"/><path class="cls-5" d="M247.31,153.66a9.36,9.36,0,0,0-5.59,4.68l-.08-2.62-5.24,1.4.69,21.43,5.24-1.4-.45-13.85a5.38,5.38,0,0,1,3.14-2.94c1.63-.44,2.72.22,2.8,2.83l.4,12.38,5.24-1.4L253,159c-.13-4-1.93-6.33-5.67-5.33" transform="translate(-1.27 -13.91)"/><path class="cls-5" d="M262.7,144.17l-5.21,1.4.19,5.85-2.73.73.19,5.94,2.73-.73.31,9.73c.13,4.12,2,5.82,5.33,4.92a6.41,6.41,0,0,0,3.84-2.46l-1.18-4.87a2.37,2.37,0,0,1-1.31.88c-.92.25-1.5-.54-1.54-1.78l-.25-7.81,3.34-.89-.19-6-3.34.89-.18-5.85" transform="translate(-1.27 -13.91)"/><polyline class="cls-5" points="15.03 256.21 9.79 257.62 10.74 287.21 15.98 285.81 15.03 256.21"/><path class="cls-5" d="M25.61,275.86l-5.24,1.41.69,21.43,5.24-1.4-.69-21.44m-2.95-9.81c-1.67.45-2.94,2.53-2.87,4.71s1.45,3.55,3.12,3.1,2.94-2.54,2.87-4.71-1.46-3.55-3.12-3.1" transform="translate(-1.27 -13.91)"/><path class="cls-5" d="M36.16,264.36c-3.4.91-5.8,4.54-5.65,9.12l0,1.06-2.73.73.19,6,2.73-.73L31.23,296l5.25-1.4L36,279.08l3.34-.89-.19-5.95-3.34.89,0-.88c0-1.64.64-2.72,1.73-3a1.9,1.9,0,0,1,1.37.08l.8-4.92a5.53,5.53,0,0,0-3.5,0" transform="translate(-1.27 -13.91)"/><path class="cls-5" d="M45.87,278.94c.15-1.6,1-4,3.25-4.59s3.33,1.31,3.52,2.78l-6.77,1.81M49,269.07c-5.14,1.38-8.59,7.37-8.39,13.57.22,7,4.27,10.23,9.34,8.87a12.17,12.17,0,0,0,6.79-4.68l-2.35-3.67a7.6,7.6,0,0,1-4,2.9,3.23,3.23,0,0,1-4.31-2.7l11.71-3.13-.05-1.47c-.23-7.28-3.91-11-8.78-9.69" transform="translate(-1.27 -13.91)"/><path class="cls-5" d="M75.41,253.84c-3.41.91-5.8,4.55-5.65,9.12l0,1.06-2.72.73.19,5.95L70,270l.5,15.49,5.24-1.41-.49-15.49,3.33-.89-.19-5.94-3.33.89,0-.89c-.05-1.64.63-2.72,1.72-3a2,2,0,0,1,1.38.08l.8-4.92a5.6,5.6,0,0,0-3.5,0" transform="translate(-1.27 -13.91)"/><path class="cls-5" d="M88.92,275c-2.28.61-3.61-1.4-3.7-4.29s1.09-5.53,3.37-6.14,3.68,1.38,3.77,4.22-1.12,5.59-3.44,6.21m-.53-16.47c-5.58,1.5-8.78,7.59-8.59,13.63s3.73,10.37,9.31,8.88,8.83-7.65,8.63-13.69S94.05,257,88.39,258.5" transform="translate(-1.27 -13.91)"/><path class="cls-5" d="M110.52,252.58c-2,.53-4,2.59-5,4.61l-.09-2.71-5.24,1.41.69,21.43,5.24-1.4-.44-13.58a6.45,6.45,0,0,1,3.79-3,3.35,3.35,0,0,1,1.3-.12l-.21-6.61" transform="translate(-1.27 -13.91)"/><path class="cls-5" d="M137.9,245.77l-5.54,1.49L129,261.85l-4.14-12.59-5.52,1.47,7.23,20-.33,1.26c-.25.95-1,1.47-2.18,1.79a2.14,2.14,0,0,1-1.3-.06l-.56,6.28a8,8,0,0,0,2.26-.25c3.13-.92,5.58-2.6,6.76-7.49l6.64-26.49" transform="translate(-1.27 -13.91)"/><path class="cls-5" d="M147.84,259.19c-2.28.61-3.62-1.41-3.71-4.3s1.09-5.53,3.37-6.14,3.69,1.39,3.78,4.23-1.13,5.59-3.44,6.21m-.53-16.47c-5.58,1.49-8.79,7.59-8.59,13.62s3.73,10.37,9.31,8.88,8.82-7.64,8.63-13.69-3.7-10.33-9.35-8.81" transform="translate(-1.27 -13.91)"/><path class="cls-5" d="M175.41,235.72l-5.24,1.41.44,13.84a5.18,5.18,0,0,1-3.06,2.93c-1.71.46-2.75-.16-2.84-2.73l-.4-12.47-5.24,1.4.48,15.27c.13,3.95,1.89,6.26,5.63,5.25a9.36,9.36,0,0,0,5.59-4.63l.08,2.57,5.24-1.4-.68-21.44" transform="translate(-1.27 -13.91)"/><path class="cls-5" d="M189.58,231.39c-2,.53-4,2.6-5,4.62l-.09-2.71-5.24,1.4.68,21.44,5.24-1.41-.43-13.58a6.37,6.37,0,0,1,3.79-3,3,3,0,0,1,1.29-.12l-.21-6.62" transform="translate(-1.27 -13.91)"/><path class="cls-5" d="M207.43,218.47c-3.4.91-5.79,4.54-5.64,9.12l0,1.06-2.72.73.19,5.94,2.72-.73.5,15.49,5.24-1.4-.5-15.49,3.34-.9-.19-5.94-3.34.89,0-.88c-.05-1.64.63-2.72,1.73-3a1.89,1.89,0,0,1,1.37.08l.81-4.92a5.49,5.49,0,0,0-3.51,0" transform="translate(-1.27 -13.91)"/><path class="cls-5" d="M219.91,241.44c-1.39.37-2.65-.09-2.71-1.79a3.21,3.21,0,0,1,2.55-3.18,2.74,2.74,0,0,1,3,.72l.06,1.91a4.52,4.52,0,0,1-2.88,2.34m-.07-18.16a13.49,13.49,0,0,0-7.35,5.33l2,3.8a8.67,8.67,0,0,1,4.59-3.51c2.11-.56,3.37.35,3.43,2.21l.09,2.71c-1-1.34-3-1.7-5.19-1.12-2.52.68-5.6,3.07-5.44,8.26.16,4.84,3.37,6.22,5.88,5.54a8.33,8.33,0,0,0,5-4l.06,2.13,5.24-1.41-.42-13.39c-.22-6.66-4-7.58-7.94-6.52" transform="translate(-1.27 -13.91)"/><path class="cls-5" d="M252.32,214.58c-2.59.7-4.68,3.22-5.57,5.35-.76-2.36-2.43-3.21-4.78-2.58a9.38,9.38,0,0,0-5.32,4.61l-.08-2.63-5.24,1.41.68,21.43,5.25-1.4-.45-13.84a5.26,5.26,0,0,1,2.87-2.88c1.59-.42,2.21.66,2.27,2.31l.41,13,5.24-1.4-.44-13.84a5.21,5.21,0,0,1,2.9-2.89c1.56-.42,2.22.66,2.27,2.31l.42,13,5.2-1.4-.49-15.53c-.14-4.39-2.11-5.92-5.14-5.11" transform="translate(-1.27 -13.91)"/><path class="cls-5" d="M266.36,211.35l-5.25,1.41.69,21.43,5.24-1.4-.68-21.44m-3-9.81c-1.67.45-2.94,2.53-2.87,4.71s1.45,3.55,3.12,3.11,2.94-2.54,2.87-4.71-1.46-3.55-3.12-3.11" transform="translate(-1.27 -13.91)"/><polyline class="cls-5" points="273.88 186.85 268.64 188.26 269.58 217.85 274.83 216.45 273.88 186.85"/><path class="cls-5" d="M295.49,203.55,290,205l-3.32,14.59L282.49,207,277,208.51l7.23,20-.33,1.26c-.25,1-1,1.47-2.18,1.79a2.06,2.06,0,0,1-1.3-.05l-.56,6.27a8,8,0,0,0,2.26-.24c3.13-.93,5.58-2.61,6.76-7.5l6.64-26.48" transform="translate(-1.27 -13.91)"/><path class="cls-5" d="M303,215.27c-1.74.47-3.14,2.77-3.07,5s1.6,3.78,3.34,3.31,3.13-2.76,3.06-5-1.6-3.77-3.33-3.31m-.78-22.21a12.42,12.42,0,0,0-7.36,6.17l3.43,4a6.3,6.3,0,0,1,3.5-3.26c1.46-.4,2,.21,2.06,1.18s-.63,1.74-1.46,2.72c-1.22,1.45-2.81,3.4-2.71,6.46a6.25,6.25,0,0,0,1.19,3.79l4.48-2.71a2.48,2.48,0,0,1-.57-1.64c-.05-1.42.88-2.57,1.94-3.88,1.45-1.86,3.13-4,3-7.69-.14-4.27-3-6.36-7.51-5.15" transform="translate(-1.27 -13.91)"/></g></g><g class="cls-2"><g class="cls-6"><polyline class="cls-7" points="21.14 62.72 15.28 64.29 15.64 75.33 6.21 77.86 5.85 66.82 0 68.39 0.95 97.98 6.8 96.41 6.42 84.52 15.85 81.99 16.23 93.88 22.09 92.31 21.14 62.72"/><path class="cls-7" d="M35,97.56c-2.29.61-3.62-1.4-3.71-4.29s1.09-5.52,3.38-6.14,3.68,1.39,3.77,4.23-1.12,5.58-3.44,6.2M34.46,81.1c-5.58,1.5-8.78,7.59-8.59,13.62s3.73,10.37,9.31,8.87S44,96,43.81,89.92s-3.7-10.33-9.35-8.82" transform="translate(-1.27 -13.91)"/><polyline class="cls-7" points="70.04 57.85 64.63 59.3 62.43 73.14 58.77 60.87 54.11 62.12 51.29 76.12 48.22 63.69 42.84 65.14 48.4 85.27 54.05 83.75 56.69 69.67 60.21 82.1 65.86 80.59 70.04 57.85"/><path class="cls-7" d="M90.13,82.79c-2.08.55-3.68-1.08-3.78-4.27s1.37-5.6,3.45-6.16A3.13,3.13,0,0,1,93,73.42L93.23,80a5.53,5.53,0,0,1-3.1,2.81m7.6-26.34-5.21,1.4.34,10.69a4.49,4.49,0,0,0-5-1.76C83.78,67.89,80.75,73,81,80c.23,7.27,3.6,10.4,7.65,9.32,1.84-.5,3.48-1.92,4.77-4.32l.08,2.48,5.21-1.39-1-29.6" transform="translate(-1.27 -13.91)"/><path class="cls-7" d="M110.21,77.41c-2.28.61-3.61-1.41-3.71-4.29s1.1-5.53,3.37-6.14,3.69,1.38,3.78,4.22-1.12,5.58-3.44,6.21M109.68,61c-5.58,1.49-8.78,7.59-8.59,13.62s3.73,10.36,9.31,8.87,8.82-7.64,8.63-13.68-3.69-10.33-9.35-8.81" transform="translate(-1.27 -13.91)"/><path class="cls-7" d="M126,65.61c.15-1.61,1-4,3.25-4.58s3.34,1.3,3.53,2.76L126,65.61m3.08-9.86c-5.14,1.38-8.58,7.35-8.38,13.57.22,7,4.27,10.22,9.34,8.86a12.25,12.25,0,0,0,6.79-4.69l-2.36-3.65a7.67,7.67,0,0,1-3.95,2.89,3.24,3.24,0,0,1-4.31-2.7l11.71-3.13,0-1.47c-.23-7.27-3.92-11-8.79-9.68" transform="translate(-1.27 -13.91)"/><path class="cls-7" d="M146.34,51.12a9,9,0,0,0-6.82,9c.17,5.45,4.14,5.15,7,5,1.71-.09,2.85,0,2.88,1.11,0,.93-.59,1.77-2.16,2.19a7.33,7.33,0,0,1-5.87-1.29l-2,5.29c1.8,1.53,4.87,2,7.8,1.22,4.73-1.27,7.39-5,7.26-9.1-.18-5.69-4.36-5.46-7.17-5.34-1.75.07-2.64,0-2.68-1s.81-1.7,2-2a5.31,5.31,0,0,1,4.91,1.06l1.86-5.06a8.37,8.37,0,0,0-7-1" transform="translate(-1.27 -13.91)"/><path class="cls-7" d="M170.29,37l-5.24,1.4L166,68l5.24-1.41-.44-13.84a5.36,5.36,0,0,1,3.1-2.94c1.66-.44,2.75.12,2.83,2.74l.4,12.46,5.24-1.4-.49-15.26c-.12-4-1.91-6.25-5.66-5.24a9.3,9.3,0,0,0-5.58,4.67L170.29,37" transform="translate(-1.27 -13.91)"/><path class="cls-7" d="M193.87,55c-2.28.61-3.62-1.41-3.71-4.29s1.09-5.53,3.38-6.14,3.68,1.39,3.77,4.23-1.13,5.58-3.44,6.2m-.53-16.46c-5.58,1.5-8.78,7.59-8.59,13.62s3.73,10.37,9.31,8.87,8.82-7.64,8.63-13.67S199,37,193.34,38.53" transform="translate(-1.27 -13.91)"/><path class="cls-7" d="M221.44,31.53l-5.24,1.41.44,13.85a5.22,5.22,0,0,1-3.06,2.92c-1.71.45-2.76-.16-2.84-2.73l-.4-12.47-5.24,1.4.49,15.27c.13,3.94,1.88,6.25,5.63,5.24a9.29,9.29,0,0,0,5.58-4.62l.08,2.57,5.25-1.4-.69-21.44" transform="translate(-1.27 -13.91)"/><path class="cls-7" d="M231.5,28.31a9,9,0,0,0-6.82,8.94c.17,5.45,4.14,5.15,6.95,5,1.72-.1,2.85,0,2.89,1.1,0,.94-.6,1.77-2.16,2.19a7.31,7.31,0,0,1-5.88-1.29l-2,5.29c1.8,1.53,4.88,2,7.8,1.22,4.73-1.27,7.39-5,7.26-9.1-.18-5.69-4.36-5.46-7.17-5.34-1.75.07-2.64,0-2.67-1s.79-1.7,2-2a5.32,5.32,0,0,1,4.91,1l1.87-5.06a8.37,8.37,0,0,0-7-1" transform="translate(-1.27 -13.91)"/><path class="cls-7" d="M247,24.69l-5.25,1.41.69,21.43,5.25-1.4L247,24.69m-3-9.81c-1.66.45-2.94,2.53-2.87,4.71s1.45,3.54,3.12,3.1,2.94-2.53,2.87-4.7-1.45-3.55-3.12-3.11" transform="translate(-1.27 -13.91)"/><path class="cls-7" d="M261.69,20.22a9.32,9.32,0,0,0-5.59,4.67L256,22.27l-5.24,1.4.68,21.44,5.25-1.41-.45-13.84a5.39,5.39,0,0,1,3.14-2.95c1.63-.43,2.71.21,2.8,2.84l.39,12.38,5.25-1.41-.48-15.18c-.13-3.95-1.93-6.33-5.67-5.32" transform="translate(-1.27 -13.91)"/><path class="cls-7" d="M279.34,31.19c-2.07.56-3.66-.67-3.76-3.82S277,22.21,279,21.65a3.08,3.08,0,0,1,3.19,1.07l.18,5.72a5.36,5.36,0,0,1-3.07,2.75m-2.23-15.11C273,17.19,270,21.75,270.2,28.81c.23,7.23,3.58,10,7.6,8.88,1.87-.5,3.47-1.95,4.77-4.41l.05,1.64c.13,4-2.29,5.59-4,6a4.84,4.84,0,0,1-5.08-1.14l-2.13,5.49a7.86,7.86,0,0,0,7.39,1.24c4.09-1.09,9.33-4.38,9.05-13.12l-.62-19.53L282,15.31l.08,2.53a4.45,4.45,0,0,0-5-1.76" transform="translate(-1.27 -13.91)"/><path class="cls-7" d="M10.7,167.9c-1.4.37-2.65-.1-2.7-1.78a3.2,3.2,0,0,1,2.54-3.19,2.74,2.74,0,0,1,3,.72l.06,1.91a4.46,4.46,0,0,1-2.88,2.34m-.06-18.15a13.3,13.3,0,0,0-7.35,5.32l2,3.8a8.67,8.67,0,0,1,4.59-3.51c2.11-.57,3.38.35,3.44,2.21l.08,2.71c-1-1.33-3-1.7-5.18-1.12-2.52.68-5.61,3.07-5.44,8.26.15,4.84,3.36,6.22,5.88,5.55a8.3,8.3,0,0,0,5-4l.07,2.13,5.24-1.4-.43-13.41c-.21-6.65-4-7.56-7.93-6.5" transform="translate(-1.27 -13.91)"/><path class="cls-7" d="M28.86,136.72c-3.4.91-5.79,4.55-5.65,9.12l0,1.06-2.73.73.19,6,2.73-.73.49,15.48,5.25-1.4-.5-15.49,3.34-.89-.19-6-3.34.9,0-.89c-.05-1.64.63-2.72,1.72-3a2,2,0,0,1,1.38.08l.8-4.92a5.6,5.6,0,0,0-3.5,0m11.88-3.18c-3.4.91-5.79,4.54-5.64,9.12l0,1.06-2.72.73.19,5.94,2.72-.73.49,15.49,5.25-1.4-.5-15.49,3.34-.89-.19-6-3.34.89,0-.88c-.05-1.64.63-2.72,1.73-3a1.9,1.9,0,0,1,1.37.08l.8-4.92a5.46,5.46,0,0,0-3.5,0" transform="translate(-1.27 -13.91)"/><path class="cls-7" d="M50.44,148.12c.15-1.6,1-4,3.25-4.59s3.34,1.31,3.53,2.77l-6.78,1.82m3.09-9.87c-5.15,1.38-8.59,7.37-8.4,13.57.23,7,4.28,10.23,9.35,8.87A12.17,12.17,0,0,0,61.27,156l-2.35-3.66a7.62,7.62,0,0,1-4,2.89,3.23,3.23,0,0,1-4.31-2.69l11.71-3.13,0-1.47c-.23-7.28-3.92-11-8.78-9.69" transform="translate(-1.27 -13.91)"/><path class="cls-7" d="M72.41,133.19c-5.14,1.38-8.84,6.93-8.62,13.64s4.2,10.24,9.34,8.86a10.2,10.2,0,0,0,6.61-5.75l-3.53-3.26a4.9,4.9,0,0,1-3,2.91c-2.18.58-3.92-1-4-4.2s1.51-5.64,3.68-6.23A2.7,2.7,0,0,1,76,140.37l3.27-5c-1-1.65-3.33-3.1-6.87-2.15" transform="translate(-1.27 -13.91)"/><path class="cls-7" d="M87.66,123.74l-5.2,1.39.18,5.86-2.72.73.19,5.94,2.72-.73.32,9.72c.13,4.13,2,5.83,5.33,4.93a6.41,6.41,0,0,0,3.84-2.46l-1.19-4.88a2.31,2.31,0,0,1-1.31.89c-.92.25-1.49-.54-1.53-1.78L88,135.54l3.33-.9-.19-5.94-3.33.89-.19-5.85" transform="translate(-1.27 -13.91)"/><path class="cls-7" d="M118.79,121.3l-5.55,1.49-3.31,14.58-4.14-12.59-5.52,1.48,7.23,20-.34,1.25c-.24,1-1,1.47-2.17,1.79a2.06,2.06,0,0,1-1.3-.05l-.56,6.28a7.89,7.89,0,0,0,2.25-.25c3.14-.92,5.59-2.61,6.77-7.49l6.64-26.49" transform="translate(-1.27 -13.91)"/><path class="cls-7" d="M128.72,134.7c-2.27.61-3.61-1.4-3.7-4.28s1.09-5.53,3.37-6.14,3.69,1.38,3.78,4.22-1.13,5.58-3.45,6.2m-.52-16.45c-5.58,1.49-8.79,7.58-8.59,13.62s3.73,10.37,9.31,8.88,8.82-7.66,8.63-13.69-3.7-10.33-9.35-8.81" transform="translate(-1.27 -13.91)"/><path class="cls-7" d="M156.3,111.25l-5.24,1.4.44,13.85a5.18,5.18,0,0,1-3.07,2.92c-1.7.46-2.75-.15-2.83-2.72l-.4-12.48L140,115.63l.48,15.27c.13,3.95,1.89,6.25,5.63,5.25a9.39,9.39,0,0,0,5.59-4.63l.08,2.57,5.24-1.41-.68-21.43" transform="translate(-1.27 -13.91)"/><path class="cls-7" d="M170.47,106.92c-2,.53-4,2.59-5,4.61l-.09-2.7-5.24,1.4.68,21.43,5.24-1.4-.43-13.58a6.39,6.39,0,0,1,3.79-3,3.3,3.3,0,0,1,1.29-.12l-.21-6.61" transform="translate(-1.27 -13.91)"/><path class="cls-7" d="M190,117.4c-2.07.56-3.66-.67-3.76-3.82s1.38-5.16,3.46-5.72a3.08,3.08,0,0,1,3.19,1.07l.18,5.72A5.33,5.33,0,0,1,190,117.4m-2.23-15.11c-4.12,1.11-7.13,5.67-6.9,12.73.23,7.23,3.57,10,7.59,8.88,1.87-.5,3.48-2,4.77-4.4l.05,1.64c.13,4-2.29,5.58-4,6a4.84,4.84,0,0,1-5.08-1.14L182,131.53a7.83,7.83,0,0,0,7.38,1.24c4.09-1.09,9.33-4.38,9.05-13.12l-.62-19.53-5.21,1.4.08,2.53a4.45,4.45,0,0,0-5-1.76" transform="translate(-1.27 -13.91)"/><path class="cls-7" d="M210,112.92c-2.28.61-3.61-1.41-3.71-4.29s1.1-5.53,3.37-6.14,3.69,1.39,3.78,4.23-1.13,5.58-3.44,6.2m-.53-16.46c-5.58,1.49-8.78,7.59-8.59,13.62s3.73,10.37,9.31,8.88,8.82-7.65,8.63-13.69-3.7-10.33-9.35-8.81" transform="translate(-1.27 -13.91)"/><path class="cls-7" d="M228.61,109.51c-1.4.37-2.65-.1-2.71-1.78a3.21,3.21,0,0,1,2.55-3.19,2.72,2.72,0,0,1,3,.72l.06,1.91a4.44,4.44,0,0,1-2.87,2.34m-.07-18.15a13.36,13.36,0,0,0-7.35,5.32l2,3.81A8.68,8.68,0,0,1,227.79,97c2.11-.56,3.38.36,3.43,2.21l.09,2.71c-1-1.33-3-1.7-5.18-1.11-2.52.67-5.6,3.07-5.44,8.26.16,4.83,3.36,6.22,5.88,5.54a8.32,8.32,0,0,0,5-4l.07,2.13,5.24-1.41-.43-13.4c-.21-6.65-4-7.57-7.93-6.51" transform="translate(-1.27 -13.91)"/><polyline class="cls-7" points="243.74 65.34 238.5 66.74 239.45 96.33 244.69 94.93 243.74 65.34"/><path class="cls-7" d="M266.16,97.88c-2.27.61-3.61-1.41-3.7-4.29s1.09-5.53,3.37-6.14,3.68,1.39,3.78,4.23-1.13,5.58-3.45,6.2m-.52-16.46c-5.58,1.49-8.79,7.59-8.59,13.62s3.73,10.38,9.31,8.88,8.82-7.65,8.63-13.69-3.7-10.33-9.35-8.81" transform="translate(-1.27 -13.91)"/><path class="cls-7" d="M284.13,68.32c-3.4.91-5.79,4.55-5.64,9.12l0,1.06-2.72.73.19,6,2.72-.73.5,15.48,5.24-1.4L284,83l3.34-.89-.19-6-3.34.9,0-.89c-.05-1.64.64-2.72,1.73-3a2,2,0,0,1,1.38.08l.8-4.92a5.63,5.63,0,0,0-3.51,0" transform="translate(-1.27 -13.91)"/><path class="cls-7" d="M26.33,207.8c-2.59.7-4.67,3.22-5.56,5.34C20,210.79,18.33,210,16,210.57a9.32,9.32,0,0,0-5.31,4.61l-.08-2.63L5.34,214,6,235.39l5.24-1.4-.44-13.85a5.26,5.26,0,0,1,2.86-2.87c1.6-.43,2.22.66,2.27,2.3l.42,13.05,5.24-1.4-.44-13.85a5.14,5.14,0,0,1,2.89-2.88c1.57-.42,2.22.66,2.27,2.3l.42,13.05,5.21-1.4-.5-15.53c-.14-4.39-2.11-5.92-5.14-5.11" transform="translate(-1.27 -13.91)"/><path class="cls-7" d="M42.46,221.65c-1.39.37-2.64-.1-2.7-1.78a3.22,3.22,0,0,1,2.54-3.19,2.73,2.73,0,0,1,3,.73l.06,1.9a4.49,4.49,0,0,1-2.88,2.34m-.07-18.15A13.45,13.45,0,0,0,35,208.82l2,3.8a8.7,8.7,0,0,1,4.59-3.5c2.11-.57,3.37.34,3.43,2.2l.09,2.71c-1-1.33-3-1.7-5.19-1.11-2.52.67-5.6,3.06-5.43,8.26.16,4.83,3.36,6.21,5.87,5.54a8.37,8.37,0,0,0,5-4l.06,2.12,5.25-1.4L50.33,210c-.22-6.65-4-7.57-7.94-6.51" transform="translate(-1.27 -13.91)"/><polyline class="cls-7" points="57.59 177.47 52.35 178.88 53.3 208.47 58.54 207.07 58.37 201.92 59.87 199.06 63.71 205.68 70.19 203.95 63.45 193.99 69.19 182.6 62.86 184.29 58.13 194.2 57.59 177.47"/><path class="cls-7" d="M77.71,194.57,72.47,196l.68,21.44L78.39,216l-.68-21.43m-3-9.81c-1.67.45-2.94,2.53-2.87,4.71S73.33,193,75,192.56s2.94-2.53,2.87-4.7-1.45-3.55-3.12-3.1" transform="translate(-1.27 -13.91)"/><path class="cls-7" d="M92.43,190.09a9.33,9.33,0,0,0-5.59,4.68l-.08-2.63-5.24,1.41L82.2,215l5.24-1.4L87,199.73a5.38,5.38,0,0,1,3.14-2.94c1.63-.44,2.72.22,2.8,2.83l.4,12.38,5.24-1.41-.49-15.17c-.12-3.95-1.92-6.33-5.66-5.33" transform="translate(-1.27 -13.91)"/><path class="cls-7" d="M110.08,201.07c-2.08.56-3.66-.68-3.76-3.83s1.38-5.16,3.45-5.71a3.09,3.09,0,0,1,3.2,1.07l.18,5.72a5.36,5.36,0,0,1-3.07,2.75M107.84,186c-4.11,1.1-7.12,5.67-6.9,12.72.23,7.24,3.58,10,7.59,8.89,1.88-.5,3.48-2,4.77-4.41l.06,1.64c.12,4-2.3,5.58-4,6a4.86,4.86,0,0,1-5.09-1.14l-2.12,5.49a7.86,7.86,0,0,0,7.39,1.24c4.08-1.1,9.33-4.38,9-13.13l-.62-19.52-5.21,1.4.08,2.53a4.47,4.47,0,0,0-5-1.76" transform="translate(-1.27 -13.91)"/><path class="cls-7" d="M137.83,196.09c-1.39.38-2.64-.09-2.7-1.78a3.21,3.21,0,0,1,2.54-3.18,2.74,2.74,0,0,1,3,.72l.06,1.9a4.43,4.43,0,0,1-2.88,2.34m-.07-18.15a13.52,13.52,0,0,0-7.35,5.33l2,3.8a8.72,8.72,0,0,1,4.59-3.51c2.11-.56,3.37.35,3.43,2.21l.09,2.71c-1-1.34-3-1.7-5.19-1.12-2.51.68-5.6,3.07-5.43,8.26.16,4.84,3.36,6.22,5.87,5.55a8.36,8.36,0,0,0,5-4l.06,2.13,5.25-1.41-.43-13.39c-.22-6.66-4-7.58-7.94-6.52" transform="translate(-1.27 -13.91)"/><path class="cls-7" d="M166.37,186.88c-2.07.55-3.67-1.08-3.77-4.27S164,177,166,176.45a3.15,3.15,0,0,1,3.24,1.06l.21,6.58a5.61,5.61,0,0,1-3.11,2.79m7.6-26.34-5.2,1.4.34,10.69a4.52,4.52,0,0,0-5-1.76c-4.12,1.11-7.15,6.18-6.92,13.18.23,7.29,3.59,10.41,7.64,9.33,1.84-.5,3.47-1.92,4.77-4.33l.08,2.48,5.21-1.39-.95-29.6" transform="translate(-1.27 -13.91)"/><path class="cls-7" d="M182.64,175c.15-1.61,1-4,3.25-4.59s3.34,1.3,3.52,2.78L182.64,175m3.08-9.87c-5.14,1.38-8.58,7.36-8.39,13.57.23,7,4.27,10.23,9.35,8.87a12.2,12.2,0,0,0,6.79-4.69l-2.36-3.66a7.56,7.56,0,0,1-4,2.89,3.23,3.23,0,0,1-4.31-2.69l11.71-3.14-.05-1.46c-.23-7.28-3.92-11-8.79-9.69" transform="translate(-1.27 -13.91)"/><path class="cls-7" d="M204.61,160c-5.14,1.38-8.84,6.93-8.63,13.63s4.21,10.25,9.35,8.87a10.27,10.27,0,0,0,6.62-5.75l-3.54-3.27a4.94,4.94,0,0,1-3,2.92c-2.19.58-3.91-1-4-4.21s1.5-5.63,3.69-6.22a2.69,2.69,0,0,1,3.16,1.21l3.27-5c-1-1.65-3.33-3.1-6.87-2.15" transform="translate(-1.27 -13.91)"/><path class="cls-7" d="M218.31,165.4c.15-1.6,1-4,3.25-4.59s3.34,1.31,3.52,2.78l-6.77,1.81m3.08-9.87c-5.14,1.38-8.59,7.37-8.39,13.57.23,7,4.28,10.23,9.35,8.87a12.2,12.2,0,0,0,6.79-4.69l-2.35-3.66a7.62,7.62,0,0,1-4,2.89,3.22,3.22,0,0,1-4.31-2.69l11.71-3.13,0-1.47c-.23-7.28-3.92-11-8.79-9.69" transform="translate(-1.27 -13.91)"/><path class="cls-7" d="M243.31,149.66a9.36,9.36,0,0,0-5.59,4.68l-.08-2.62-5.24,1.4.69,21.43,5.24-1.4-.45-13.85a5.38,5.38,0,0,1,3.14-2.94c1.63-.44,2.72.22,2.8,2.83l.4,12.38,5.24-1.4L249,155c-.13-4-1.93-6.33-5.67-5.33" transform="translate(-1.27 -13.91)"/><path class="cls-7" d="M258.7,140.17l-5.21,1.4.19,5.85-2.73.73.19,5.94,2.73-.73.31,9.73c.13,4.12,2,5.82,5.33,4.92a6.41,6.41,0,0,0,3.84-2.46l-1.18-4.87a2.37,2.37,0,0,1-1.31.88c-.92.25-1.5-.54-1.54-1.78l-.25-7.81,3.34-.89-.19-6-3.34.89-.18-5.85" transform="translate(-1.27 -13.91)"/><polyline class="cls-7" points="11.03 252.21 5.79 253.62 6.74 283.21 11.98 281.81 11.03 252.21"/><path class="cls-7" d="M21.61,271.86l-5.24,1.41.69,21.43,5.24-1.4-.69-21.44m-2.95-9.81c-1.67.45-2.94,2.53-2.87,4.71s1.45,3.55,3.12,3.1,2.94-2.54,2.87-4.71-1.46-3.55-3.12-3.1" transform="translate(-1.27 -13.91)"/><path class="cls-7" d="M32.16,260.36c-3.4.91-5.8,4.54-5.65,9.12l0,1.06-2.73.73.19,6,2.73-.73L27.23,292l5.25-1.4L32,275.08l3.34-.89-.19-5.95-3.34.89,0-.88c-.05-1.64.64-2.72,1.73-3a1.9,1.9,0,0,1,1.37.08l.8-4.92a5.53,5.53,0,0,0-3.5,0" transform="translate(-1.27 -13.91)"/><path class="cls-7" d="M41.87,274.94c.15-1.6,1-4,3.25-4.59s3.33,1.31,3.52,2.78l-6.77,1.81M45,265.07c-5.14,1.38-8.59,7.37-8.39,13.57.22,7,4.27,10.23,9.34,8.87a12.17,12.17,0,0,0,6.79-4.68l-2.35-3.67a7.6,7.6,0,0,1-4,2.9,3.23,3.23,0,0,1-4.31-2.7l11.71-3.13-.05-1.47c-.23-7.28-3.91-11-8.78-9.69" transform="translate(-1.27 -13.91)"/><path class="cls-7" d="M71.41,249.84c-3.41.91-5.8,4.55-5.65,9.12l0,1.06-2.72.73.19,5.95L66,266l.5,15.49,5.24-1.41-.49-15.49,3.33-.89-.19-5.94-3.33.89,0-.89c-.05-1.64.63-2.72,1.72-3a2,2,0,0,1,1.38.08l.8-4.92a5.6,5.6,0,0,0-3.5,0" transform="translate(-1.27 -13.91)"/><path class="cls-7" d="M84.92,271c-2.28.61-3.61-1.4-3.7-4.29s1.09-5.53,3.37-6.14,3.68,1.38,3.77,4.22-1.12,5.59-3.44,6.21m-.53-16.47c-5.58,1.5-8.78,7.59-8.59,13.63s3.73,10.37,9.31,8.88,8.83-7.65,8.63-13.69S90.05,253,84.39,254.5" transform="translate(-1.27 -13.91)"/><path class="cls-7" d="M106.52,248.58c-2,.53-4,2.59-5,4.61l-.09-2.71-5.24,1.41.69,21.43,5.24-1.4-.44-13.58a6.45,6.45,0,0,1,3.79-3,3.35,3.35,0,0,1,1.3-.12l-.21-6.61" transform="translate(-1.27 -13.91)"/><path class="cls-7" d="M133.9,241.77l-5.54,1.49L125,257.85l-4.14-12.59-5.52,1.47,7.23,20-.33,1.26c-.25.95-1,1.47-2.18,1.79a2.14,2.14,0,0,1-1.3-.06l-.56,6.28a8,8,0,0,0,2.26-.25c3.13-.92,5.58-2.6,6.76-7.49l6.64-26.49" transform="translate(-1.27 -13.91)"/><path class="cls-7" d="M143.84,255.19c-2.28.61-3.62-1.41-3.71-4.3s1.09-5.53,3.37-6.14,3.69,1.39,3.78,4.23-1.13,5.59-3.44,6.21m-.53-16.47c-5.58,1.49-8.79,7.59-8.59,13.62s3.73,10.37,9.31,8.88,8.82-7.64,8.63-13.69-3.7-10.33-9.35-8.81" transform="translate(-1.27 -13.91)"/><path class="cls-7" d="M171.41,231.72l-5.24,1.41.44,13.84a5.18,5.18,0,0,1-3.06,2.93c-1.71.46-2.75-.16-2.84-2.73l-.4-12.47-5.24,1.4.48,15.27c.13,3.95,1.89,6.26,5.63,5.25a9.36,9.36,0,0,0,5.59-4.63l.08,2.57,5.24-1.4-.68-21.44" transform="translate(-1.27 -13.91)"/><path class="cls-7" d="M185.58,227.39c-2,.53-4,2.6-5,4.62l-.09-2.71-5.24,1.4.68,21.44,5.24-1.41-.43-13.58a6.37,6.37,0,0,1,3.79-3,3,3,0,0,1,1.29-.12l-.21-6.62" transform="translate(-1.27 -13.91)"/><path class="cls-7" d="M203.43,214.47c-3.4.91-5.79,4.54-5.64,9.12l0,1.06-2.72.73.19,5.94,2.72-.73.5,15.49,5.24-1.4-.5-15.49,3.34-.9-.19-5.94-3.34.89,0-.88c-.05-1.64.63-2.72,1.73-3a1.89,1.89,0,0,1,1.37.08l.81-4.92a5.49,5.49,0,0,0-3.51,0" transform="translate(-1.27 -13.91)"/><path class="cls-7" d="M215.91,237.44c-1.39.37-2.65-.09-2.71-1.79a3.21,3.21,0,0,1,2.55-3.18,2.74,2.74,0,0,1,3,.72l.06,1.91a4.52,4.52,0,0,1-2.88,2.34m-.07-18.16a13.49,13.49,0,0,0-7.35,5.33l2,3.8a8.67,8.67,0,0,1,4.59-3.51c2.11-.56,3.37.35,3.43,2.21l.09,2.71c-1-1.34-3-1.7-5.19-1.12-2.52.68-5.6,3.07-5.44,8.26.16,4.84,3.37,6.22,5.88,5.54a8.33,8.33,0,0,0,5-4l.06,2.13,5.24-1.41-.42-13.39c-.22-6.66-4-7.58-7.94-6.52" transform="translate(-1.27 -13.91)"/><path class="cls-7" d="M248.32,210.58c-2.59.7-4.68,3.22-5.57,5.35-.76-2.36-2.43-3.21-4.78-2.58a9.38,9.38,0,0,0-5.32,4.61l-.08-2.63-5.24,1.41.68,21.43,5.25-1.4-.45-13.84a5.26,5.26,0,0,1,2.87-2.88c1.59-.42,2.21.66,2.27,2.31l.41,13,5.24-1.4-.44-13.84a5.21,5.21,0,0,1,2.9-2.89c1.56-.42,2.22.66,2.27,2.31l.42,13,5.2-1.4-.49-15.53c-.14-4.39-2.11-5.92-5.14-5.11" transform="translate(-1.27 -13.91)"/><path class="cls-7" d="M262.36,207.35l-5.25,1.41.69,21.43,5.24-1.4-.68-21.44m-3-9.81c-1.67.45-2.94,2.53-2.87,4.71s1.45,3.55,3.12,3.11,2.94-2.54,2.87-4.71-1.46-3.55-3.12-3.11" transform="translate(-1.27 -13.91)"/><polyline class="cls-7" points="269.88 182.85 264.64 184.26 265.58 213.85 270.83 212.45 269.88 182.85"/><path class="cls-7" d="M291.49,199.55,286,201l-3.32,14.59L278.49,203,273,204.51l7.23,20-.33,1.26c-.25,1-1,1.47-2.18,1.79a2.06,2.06,0,0,1-1.3-.05l-.56,6.27a8,8,0,0,0,2.26-.24c3.13-.93,5.58-2.61,6.76-7.5l6.64-26.48" transform="translate(-1.27 -13.91)"/><path class="cls-7" d="M299,211.27c-1.74.47-3.14,2.77-3.07,5s1.6,3.78,3.34,3.31,3.13-2.76,3.06-5-1.6-3.77-3.33-3.31m-.78-22.21a12.42,12.42,0,0,0-7.36,6.17l3.43,4a6.3,6.3,0,0,1,3.5-3.26c1.46-.4,2,.21,2.06,1.18s-.63,1.74-1.46,2.72c-1.22,1.45-2.81,3.4-2.71,6.46a6.25,6.25,0,0,0,1.19,3.79l4.48-2.71a2.48,2.48,0,0,1-.57-1.64c-.05-1.42.88-2.57,1.94-3.88,1.45-1.86,3.13-4,3-7.69-.14-4.27-3-6.36-7.51-5.15" transform="translate(-1.27 -13.91)"/></g></g></g></g></g></svg>