<svg xmlns="http://www.w3.org/2000/svg" viewBox="0 0 121.94 61.22"><defs><style>.cls-1{isolation:isolate;}.cls-2{fill:#9d9d9d;}.cls-3{fill:#fff;}.cls-4{mix-blend-mode:multiply;}.cls-5{fill:#f77b45;}.cls-6{fill:#1e393d;}.cls-7{fill:#984d2b;}</style></defs><title>score-sprite-health</title><g class="cls-1"><g id="Layer_1" data-name="Layer 1"><g id="_Group_" data-name="&lt;Group&gt;"><polygon class="cls-2" points="30.27 0 0 19.27 0.05 59.63 30.27 61.22 30.27 0"/><polygon class="cls-3" points="30.27 0 59.94 19.59 59.94 59.63 30.27 61.22 30.27 0"/><g class="cls-4"><polygon class="cls-5" points="30.27 0 0 19.27 0.05 59.63 30.27 61.22 30.27 0"/><polygon class="cls-5" points="30.27 0 59.94 19.59 59.94 59.63 30.27 61.22 30.27 0"/></g></g><polygon class="cls-6" points="64.05 57.79 63.92 20.43 92.13 2.38 119.86 20.6 119.94 57.67 92.27 59.21 64.05 57.79"/><path class="cls-7" d="M92.11,4.77l25.75,16.91.07,34.1L92.26,57.21,66,55.89l-.12-34.37L92.11,4.77m0-4.77L61.91,19.33l.14,40.36,30.22,1.53,29.67-1.66-.09-40L92.14,0Z"/></g></g></svg>